<?xml version='1.0' encoding='utf-8'?>
<svg xmlns="http://www.w3.org/2000/svg" width="1920" height="1080" viewBox="0 0 1920 1080" data-theme="light" data-semantic-intent="sequence" data-relation-type="sequence" data-site-visual-identity="signal-cobalt">
  <style>
        @font-face {
            font-family: 'Inter';
            src: url('assets/fonts/Inter-Regular.ttf') format('truetype');
            font-weight: 400;
            font-style: normal;
            font-display: swap;
        }
        @font-face {
            font-family: 'Inter';
            src: url('assets/fonts/Inter-Bold.ttf') format('truetype');
            font-weight: 600;
            font-style: normal;
            font-display: swap;
        }
        @font-face {
            font-family: 'Inter';
            src: url('assets/fonts/Inter-Bold.ttf') format('truetype');
            font-weight: 800;
            font-style: normal;
            font-display: swap;
        }
        
:root {
    --background: #f8fafc;
    --panel: #ffffff;
    --primary-text: #0f172a;
    --muted-text: #64748b;
    --inverse-text: #ffffff;
    --border: #e2e8f0;
    --shadow-color: #000000;
    --icon-pad-bg: #1e293b;
    --art-glow: #0891b2;
    --art-glow-opacity: 0.10;
    --art-sheen: #ffffff;
    --art-sheen-opacity: 0.34;
    --art-shadow: #0f172a;
    --art-shadow-opacity: 0.14;
    --art-muted-line: #94a3b8;
    --art-panel-tint: #f1f5f9;
    --semantic-risk: #b91c1c;
    --semantic-warning: #c2410c;
    --semantic-uncertain: #a16207;
    --semantic-evidence: #1d4ed8;
    --semantic-claim: #6d28d9;
    --semantic-positive: #15803d;
    --semantic-outcome: #0e7490;
    --font-family: 'Inter', 'Segoe UI', 'Kalam', Roboto, Helvetica, Arial, sans-serif;
    --radius-xl: 16px;
    --font-family-headline: 'Segoe UI Variable Display', 'Aptos Display', 'Inter', 'Segoe UI', Helvetica, Arial, sans-serif;
    --font-family-body: 'Segoe UI Variable Text', 'Aptos', 'Inter', 'Segoe UI', Helvetica, Arial, sans-serif;
    --font-heading: var(--font-family-headline);
    --font-body: var(--font-family-body);
    --font-size-h1: 64px;
    --font-size-h2: 42px;
    --font-size-h3: 29px;
    --font-size-body: 21px;
    --font-size-caption: 17px;
    --secondary-text: var(--muted-text);
    --panel-border: var(--border);
    --font-weight-normal: 400;
    --font-weight-medium: 500;
    --font-weight-semibold: 600;
    --font-weight-bold: 700;
    --spacing-gutter-pct: 0.07;
    --spacing-top-pct: 0.15;
    --spacing-bottom-pct: 0.07;
    --spacing-title-y-pct: 0.055;
    --accent-1: #1d4ed8;
    --accent-2: #2563eb;
    --accent-3: #4f46e5;
    --accent-4: #6d28d9;
    --accent-5: #0369a1;
    --accent-6: #c2410c;
}
:root[data-theme="dark"] {
    --background: #0f172a;
    --panel: #1e293b;
    --primary-text: #f1f5f9;
    --muted-text: #94a3b8;
    --inverse-text: #0f172a;
    --border: #334155;
    --shadow-color: #000000;
    --icon-pad-bg: #1e293b;
    --art-glow: #7dd3fc;
    --art-glow-opacity: 0.18;
    --art-sheen: #ffffff;
    --art-sheen-opacity: 0.18;
    --art-shadow: #000000;
    --art-shadow-opacity: 0.28;
    --art-muted-line: #64748b;
    --art-panel-tint: #1e293b;
    --semantic-risk: #f87171;
    --semantic-warning: #fb923c;
    --semantic-uncertain: #fbbf24;
    --semantic-evidence: #60a5fa;
    --semantic-claim: #c084fc;
    --semantic-positive: #4ade80;
    --semantic-outcome: #22d3ee;
    --accent-1: #93c5fd;
    --accent-2: #60a5fa;
    --accent-3: #818cf8;
    --accent-4: #a78bfa;
    --accent-5: #38bdf8;
    --accent-6: #fb923c;
}
:root[data-theme="light"] {
    --background: #f8fafc;
    --panel: #ffffff;
    --primary-text: #0f172a;
    --muted-text: #64748b;
    --inverse-text: #ffffff;
    --border: #e2e8f0;
    --shadow-color: #000000;
    --icon-pad-bg: #1e293b;
    --art-glow: #0891b2;
    --art-glow-opacity: 0.10;
    --art-sheen: #ffffff;
    --art-sheen-opacity: 0.34;
    --art-shadow: #0f172a;
    --art-shadow-opacity: 0.14;
    --art-muted-line: #94a3b8;
    --art-panel-tint: #f1f5f9;
    --semantic-risk: #b91c1c;
    --semantic-warning: #c2410c;
    --semantic-uncertain: #a16207;
    --semantic-evidence: #1d4ed8;
    --semantic-claim: #6d28d9;
    --semantic-positive: #15803d;
    --semantic-outcome: #0e7490;
    --accent-1: #1d4ed8;
    --accent-2: #2563eb;
    --accent-3: #4f46e5;
    --accent-4: #6d28d9;
    --accent-5: #0369a1;
    --accent-6: #c2410c;
}</style>
  <rect x="0" y="0" width="1.92E+3" height="1.08E+3" fill="#252a34" stroke="none" id="programmatic_background"/>
  <line id="HEADER_DECOR" x1="960.0" x2="1080.0" y1="135.0" y2="135.0" stroke="var(--accent-1)" stroke-width="6" stroke-linecap="round"/>
  <defs>
    <pattern id="svg1557ccf6-napkin-hatch" patternUnits="userSpaceOnUse" width="12" height="12">
      <path d="M -3 12 L 12 -3 M 0 15 L 15 0" fill="none" stroke="var(--primary-text)" stroke-width="1" stroke-opacity="0.035"/>
    </pattern>
    <filter id="svg1557ccf6-shadow" x="-30%" y="-30%" width="160%" height="160%">
      <feDropShadow dx="0" dy="2" stdDeviation="3" flood-color="#000000" flood-opacity="0.07"/>
      <feDropShadow dx="0" dy="5" stdDeviation="8" flood-color="#000000" flood-opacity="0.10"/>
    </filter>
    <marker id="svg1557ccf6-arrowhead" markerWidth="10" markerHeight="10" refX="9" refY="5" orient="auto">
      <path d="M 0 0 L 10 5 L 0 10 Z" fill="var(--accent-1)"/>
    </marker>
    <filter id="svg1557ccf6-text-glow" x="-20%" y="-20%" width="140%" height="140%">
      <feDropShadow dx="0" dy="0" stdDeviation="2" flood-color="#000000" flood-opacity="0.4"/>
    </filter>
    <radialGradient id="svg1557ccf6-universal-edge-vignette" cx="50%" cy="50%" r="72%">
      <stop offset="0%" stop-color="var(--background)" stop-opacity="0"/>
      <stop offset="72%" stop-color="var(--background)" stop-opacity="0.12"/>
      <stop offset="100%" stop-color="var(--primary-text)" stop-opacity="0.08"/>
    </radialGradient>
    <linearGradient id="svg1557ccf6-universal-surface-sheen" x1="0%" y1="0%" x2="100%" y2="100%">
      <stop offset="0%" stop-color="var(--art-sheen)" stop-opacity="var(--art-sheen-opacity)"/>
      <stop offset="46%" stop-color="var(--art-sheen)" stop-opacity="0.035"/>
      <stop offset="100%" stop-color="var(--art-panel-tint)" stop-opacity="0.14"/>
    </linearGradient>
    <radialGradient id="svg1557ccf6-universal-icon-aura" cx="50%" cy="42%" r="64%">
      <stop offset="0%" stop-color="var(--art-glow)" stop-opacity="var(--art-glow-opacity)"/>
      <stop offset="100%" stop-color="var(--background)" stop-opacity="0"/>
    </radialGradient>
    <marker id="svg1557ccf6-PHX_SEQUENCE_DIRECTION_ARROW" markerWidth="18" markerHeight="18" refX="16" refY="9" orient="auto" markerUnits="userSpaceOnUse">
      <path d="M 0 0 L 18 9 L 0 18 Z" fill="var(--muted-text)" opacity="0.9"/>
    </marker>
  </defs>
  <rect width="100%" height="100%" fill="var(--background)" id="CANVAS_BG"/>
  <rect width="100%" height="100%" fill="url(#svg1557ccf6-napkin-hatch)"/>
  <rect id="UNIVERSAL_EDGE_VIGNETTE" width="100%" height="100%" fill="url(#svg1557ccf6-universal-edge-vignette)" opacity="0.62"/>
  <text id="TITLE" x="960.0" y="59" text-anchor="middle" font-size="58" font-weight="700" fill="#0f172a" style="font-size: 64px; font-family: 'Segoe UI Variable Display', 'Aptos Display', 'Inter', 'Segoe UI', Helvetica, Arial, sans-serif; font-weight: 800; font-kerning: normal; font-feature-settings: &quot;kern&quot; 1, &quot;liga&quot; 1; letter-spacing:-1.2px;" data-final-font-size="64">
    <tspan x="960.0" dy="69.10px">Airprox Investigation Workflow for Berkshire Sighting</tspan>
  </text>
  <rect id="TITLE_FRAME" x="134" y="59" width="1652" height="103" fill="none"/>
  <g id="DIAGRAM_SCALER" transform="translate(12, -8) scale(0.98)">
    <line x1="120" y1="508" x2="1800" y2="508" stroke="var(--muted-text)" stroke-width="1.5" opacity="0.18" stroke-linecap="round" marker-end="url(#svg1557ccf6-PHX_SEQUENCE_DIRECTION_ARROW)" data-direction-cue="forward"/>
    <rect x="356.0" y="494" width="72.0" height="28" rx="14" fill="var(--muted-text)" opacity="0.08"/>
    <g transform="translate(190.0, 508)">
      <rect id="ITEM_1_BG" x="-210" y="-176" width="420" height="420" rx="28" fill="var(--panel)" fill-opacity="0.94" stroke="var(--accent-1)" stroke-width="1.8"/>
      <rect id="ITEM_1_NODE" x="-68" y="-82" width="136" height="136" rx="40" fill="var(--background)" stroke="var(--accent-1)" stroke-width="2" stroke-opacity="0.58" data-badge-layer="outline"/>
      <text id="ITEM_1_HEAD" x="0.0" y="95.0" text-anchor="middle" font-weight="bold" font-size="29" fill="var(--accent-1)" data-bg-id="ITEM_1_BG" fill-opacity="1.0" style="font-size: 31px; font-family: 'Segoe UI Variable Display', 'Aptos Display', 'Inter', 'Segoe UI', Helvetica, Arial, sans-serif; font-weight: 700; font-kerning: normal; font-feature-settings: &quot;kern&quot; 1, &quot;liga&quot; 1; letter-spacing:-0.4px;" data-final-font-size="31">
        <tspan x="0.0" dy="38.02px">Initial Pilot Report</tspan>
      </text>
      <rect id="ITEM_1_HEAD_FRAME" x="-190" y="95" width="380" height="50" fill="none"/>
      <text id="ITEM_1_BODY" x="0.0" y="144.0" text-anchor="middle" font-size="21" fill="var(--primary-text)" data-bg-id="ITEM_1_BG" style="font-size: 23px; font-family: 'Segoe UI Variable Text', 'Aptos', 'Inter', 'Segoe UI', Helvetica, Arial, sans-serif; font-weight: 400; font-kerning: normal; font-feature-settings: &quot;kern&quot; 1, &quot;liga&quot; 1;" data-final-font-size="23">
        <tspan x="0.0" dy="49.36px">Captain files formal report regarding</tspan>
        <tspan x="0.0" dy="26.45px">metallic cigar-shaped craft</tspan>
      </text>
      <rect id="ITEM_1_BODY_FRAME" x="-188" y="144" width="376" height="176" fill="none"/>
      <g id="ITEM_1_ICON" transform="translate(-41.0, -55.0)" data-icon-size="82" stroke-linecap="round" stroke-linejoin="round" data-badge-treatment="clean">
        <g transform="translate(-5.857142857142858,-5.857142857142857) scale(2.9285714285714284)">
          <path d="M5 4.5C5 3.67157 5.67157 3 6.5 3H25.5C26.3284 3 27 3.67157 27 4.5V28.5C27 29.3284 26.3284 30 25.5 30H6.5C5.67157 30 5 29.3284 5 28.5V4.5Z" fill="#E19747"/>
          <path d="M25 6C25 5.44772 24.5523 5 24 5H8C7.44772 5 7 5.44772 7 6V27C7 27.5523 7.44772 28 8 28H18.5858C18.7327 28 18.8764 27.9677 19.0071 27.9069L19.3282 27.1239L19.96 23.0379L24.4166 22.255L24.9064 22.0082C24.9675 21.8772 25 21.7332 25 21.5858V6Z" fill="#F3EEF8"/>
          <path d="M24.9102 22H20C19.4477 22 19 22.4477 19 23V27.9102C19.108 27.861 19.2074 27.7926 19.2929 27.7071L24.7071 22.2929C24.7926 22.2074 24.861 22.108 24.9102 22Z" fill="#CDC4D6"/>
          <path d="M18 4C18 2.89543 17.1046 2 16 2C14.8954 2 14 2.89543 14 4H13C11.8954 4 11 4.89543 11 6V7.5C11 7.77614 11.2239 8 11.5 8H20.5C20.7761 8 21 7.77614 21 7.5V6C21 4.89543 20.1046 4 19 4H18ZM17 4C17 4.55228 16.5523 5 16 5C15.4477 5 15 4.55228 15 4C15 3.44772 15.4477 3 16 3C16.5523 3 17 3.44772 17 4Z" fill="#9B9B9B"/>
          <path d="M9 12.5C9 12.2239 9.22386 12 9.5 12H22.5C22.7761 12 23 12.2239 23 12.5C23 12.7761 22.7761 13 22.5 13H9.5C9.22386 13 9 12.7761 9 12.5Z" fill="#9B9B9B"/>
          <path d="M9 15.5C9 15.2239 9.22386 15 9.5 15H22.5C22.7761 15 23 15.2239 23 15.5C23 15.7761 22.7761 16 22.5 16H9.5C9.22386 16 9 15.7761 9 15.5Z" fill="#9B9B9B"/>
          <path d="M9.5 18C9.22386 18 9 18.2239 9 18.5C9 18.7761 9.22386 19 9.5 19H22.5C22.7761 19 23 18.7761 23 18.5C23 18.2239 22.7761 18 22.5 18H9.5Z" fill="#9B9B9B"/>
          <path d="M9 21.5C9 21.2239 9.22386 21 9.5 21H17.5C17.7761 21 18 21.2239 18 21.5C18 21.7761 17.7761 22 17.5 22H9.5C9.22386 22 9 21.7761 9 21.5Z" fill="#9B9B9B"/>
        </g>
      </g>
    </g>
    <rect x="696.0" y="494" width="72.0" height="28" rx="14" fill="var(--muted-text)" opacity="0.08"/>
    <g transform="translate(575.0, 508)">
      <rect id="ITEM_2_BG" x="-210" y="-176" width="420" height="420" rx="28" fill="var(--panel)" fill-opacity="0.94" stroke="var(--accent-2)" stroke-width="1.8"/>
      <rect id="ITEM_2_NODE" x="-68" y="-82" width="136" height="136" rx="40" fill="var(--background)" stroke="var(--accent-2)" stroke-width="2" stroke-opacity="0.58" data-badge-layer="outline"/>
      <text id="ITEM_2_HEAD" x="0.0" y="95.0" text-anchor="middle" font-weight="bold" font-size="29" fill="var(--accent-2)" data-bg-id="ITEM_2_BG" fill-opacity="1.0" style="font-size: 31px; font-family: 'Segoe UI Variable Display', 'Aptos Display', 'Inter', 'Segoe UI', Helvetica, Arial, sans-serif; font-weight: 700; font-kerning: normal; font-feature-settings: &quot;kern&quot; 1, &quot;liga&quot; 1; letter-spacing:-0.4px;" data-final-font-size="31">
        <tspan x="0.0" dy="38.02px">Radar Data Analysis</tspan>
      </text>
      <rect id="ITEM_2_HEAD_FRAME" x="-190" y="95" width="380" height="50" fill="none"/>
      <text id="ITEM_2_BODY" x="0.0" y="144.0" text-anchor="middle" font-size="21" fill="var(--primary-text)" data-bg-id="ITEM_2_BG" style="font-size: 23px; font-family: 'Segoe UI Variable Text', 'Aptos', 'Inter', 'Segoe UI', Helvetica, Arial, sans-serif; font-weight: 400; font-kerning: normal; font-feature-settings: &quot;kern&quot; 1, &quot;liga&quot; 1;" data-final-font-size="23">
        <tspan x="0.0" dy="49.36px">Military and NATS teams scan area</tspan>
        <tspan x="0.0" dy="26.45px">radar record ings</tspan>
      </text>
      <rect id="ITEM_2_BODY_FRAME" x="-188" y="144" width="376" height="176" fill="none"/>
      <g id="ITEM_2_ICON" transform="translate(-41.0, -55.0)" data-icon-size="82" stroke-linecap="round" stroke-linejoin="round" data-badge-treatment="clean">
        <g transform="translate(-3.4745762711864407,-3.4745762711864407) scale(3.7062146892655368)" vector-effect="non-scaling-stroke" stroke-width="2.70" stroke-linecap="round" stroke-linejoin="round" stroke-opacity="1.0">
          <path d="M19.07 4.93A10 10 0 0 0 6.99 3.34" vector-effect="non-scaling-stroke" fill="none" stroke="var(--primary-text)"/>
          <path d="M4 6h.01" vector-effect="non-scaling-stroke" fill="none" stroke="var(--primary-text)"/>
          <path d="M2.29 9.62A10 10 0 1 0 21.31 8.35" vector-effect="non-scaling-stroke" fill="none" stroke="var(--primary-text)"/>
          <path d="M16.24 7.76A6 6 0 1 0 8.23 16.67" vector-effect="non-scaling-stroke" fill="none" stroke="var(--primary-text)"/>
          <path d="M12 18h.01" vector-effect="non-scaling-stroke" fill="none" stroke="var(--primary-text)"/>
          <path d="M17.99 11.66A6 6 0 0 1 15.77 16.67" vector-effect="non-scaling-stroke" fill="none" stroke="var(--primary-text)"/>
          <circle cx="12" cy="12" r="2" vector-effect="non-scaling-stroke" fill="none" stroke="var(--primary-text)"/>
          <path d="m13.41 10.59 5.66-5.66" vector-effect="non-scaling-stroke" fill="none" stroke="var(--primary-text)"/>
        </g>
      </g>
    </g>
    <rect x="1036.0" y="494" width="72.0" height="28" rx="14" fill="var(--muted-text)" opacity="0.08"/>
    <g transform="translate(960.0, 508)">
      <rect id="ITEM_3_BG" x="-210" y="-176" width="420" height="420" rx="28" fill="var(--panel)" fill-opacity="0.94" stroke="var(--accent-3)" stroke-width="1.8"/>
      <rect id="ITEM_3_NODE" x="-68" y="-82" width="136" height="136" rx="40" fill="var(--background)" stroke="var(--accent-3)" stroke-width="2" stroke-opacity="0.58" data-badge-layer="outline"/>
      <text id="ITEM_3_HEAD" x="0.0" y="95.0" text-anchor="middle" font-weight="bold" font-size="29" fill="var(--accent-3)" data-bg-id="ITEM_3_BG" fill-opacity="1.0" style="font-size: 31px; font-family: 'Segoe UI Variable Display', 'Aptos Display', 'Inter', 'Segoe UI', Helvetica, Arial, sans-serif; font-weight: 700; font-kerning: normal; font-feature-settings: &quot;kern&quot; 1, &quot;liga&quot; 1; letter-spacing:-0.4px;" data-final-font-size="31">
        <tspan x="0.0" dy="38.02px">Traffic Verification</tspan>
      </text>
      <rect id="ITEM_3_HEAD_FRAME" x="-190" y="95" width="380" height="50" fill="none"/>
      <text id="ITEM_3_BODY" x="0.0" y="144.0" text-anchor="middle" font-size="21" fill="var(--primary-text)" data-bg-id="ITEM_3_BG" style="font-size: 23px; font-family: 'Segoe UI Variable Text', 'Aptos', 'Inter', 'Segoe UI', Helvetica, Arial, sans-serif; font-weight: 400; font-kerning: normal; font-feature-settings: &quot;kern&quot; 1, &quot;liga&quot; 1;" data-final-font-size="23">
        <tspan x="0.0" dy="49.36px">Investigators cross-reference TCAS</tspan>
        <tspan x="0.0" dy="26.45px">and transponder data logs</tspan>
      </text>
      <rect id="ITEM_3_BODY_FRAME" x="-188" y="144" width="376" height="176" fill="none"/>
      <g id="ITEM_3_ICON" transform="translate(-41.0, -55.0)" data-icon-size="82" stroke-linecap="round" stroke-linejoin="round" data-badge-treatment="clean">
        <g transform="translate(-3.4745762711864407,-3.4745762711864385) scale(3.7062146892655368)" vector-effect="non-scaling-stroke" stroke-width="2.70" stroke-linecap="round" stroke-linejoin="round" stroke-opacity="1.0">
          <rect width="20" height="14" x="2" y="3" rx="2" vector-effect="non-scaling-stroke" fill="none" stroke="var(--primary-text)"/>
          <line x1="8" x2="16" y1="21" y2="21" vector-effect="non-scaling-stroke" fill="none" stroke="var(--primary-text)"/>
          <line x1="12" x2="12" y1="17" y2="21" vector-effect="non-scaling-stroke" fill="none" stroke="var(--primary-text)"/>
        </g>
      </g>
    </g>
    <rect x="1376.0" y="494" width="72.0" height="28" rx="14" fill="var(--muted-text)" opacity="0.08"/>
    <g transform="translate(1345.0, 508)">
      <rect id="ITEM_4_BG" x="-210" y="-176" width="420" height="420" rx="28" fill="var(--panel)" fill-opacity="0.94" stroke="var(--accent-4)" stroke-width="1.8"/>
      <rect id="ITEM_4_NODE" x="-68" y="-82" width="136" height="136" rx="40" fill="var(--background)" stroke="var(--accent-1)" stroke-width="2" stroke-opacity="0.58" data-badge-layer="outline"/>
      <text id="ITEM_4_HEAD" x="0.0" y="95.0" text-anchor="middle" font-weight="bold" font-size="29" fill="var(--accent-1)" data-bg-id="ITEM_4_BG" fill-opacity="1.0" style="font-size: 31px; font-family: 'Segoe UI Variable Display', 'Aptos Display', 'Inter', 'Segoe UI', Helvetica, Arial, sans-serif; font-weight: 700; font-kerning: normal; font-feature-settings: &quot;kern&quot; 1, &quot;liga&quot; 1; letter-spacing:-0.4px;" data-final-font-size="31">
        <tspan x="0.0" dy="38.02px">Balloon Activity Check</tspan>
      </text>
      <rect id="ITEM_4_HEAD_FRAME" x="-190" y="95" width="380" height="50" fill="none"/>
      <text id="ITEM_4_BODY" x="0.0" y="144.0" text-anchor="middle" font-size="21" fill="var(--primary-text)" data-bg-id="ITEM_4_BG" style="font-size: 23px; font-family: 'Segoe UI Variable Text', 'Aptos', 'Inter', 'Segoe UI', Helvetica, Arial, sans-serif; font-weight: 400; font-kerning: normal; font-feature-settings: &quot;kern&quot; 1, &quot;liga&quot; 1;" data-final-font-size="23">
        <tspan x="0.0" dy="49.36px">Authorities verify meteorological</tspan>
        <tspan x="0.0" dy="26.45px">and radiosonde launch schedules</tspan>
      </text>
      <rect id="ITEM_4_BODY_FRAME" x="-188" y="144" width="376" height="176" fill="none"/>
      <g id="ITEM_4_ICON" transform="translate(-41.0, -55.0)" data-icon-size="82" stroke-linecap="round" stroke-linejoin="round" data-badge-treatment="clean">
        <g transform="translate(-7.5925925925925934,-7.5925925925925934) scale(4.049382716049383)" vector-effect="non-scaling-stroke" stroke-width="2.70" stroke-linecap="round" stroke-linejoin="round" stroke-opacity="1.0">
          <path d="M3 12c0 1.657 4.03 3 9 3s9 -1.343 9 -3" vector-effect="non-scaling-stroke" fill="none" stroke="var(--primary-text)"/>
          <path d="M12 12m-9 0a9 9 0 1 0 18 0a9 9 0 1 0 -18 0" vector-effect="non-scaling-stroke" fill="none" stroke="var(--primary-text)"/>
        </g>
      </g>
    </g>
    <g transform="translate(1730.0, 508)">
      <rect id="ITEM_5_BG" x="-210" y="-176" width="420" height="420" rx="28" fill="var(--panel)" fill-opacity="0.94" stroke="var(--accent-5)" stroke-width="1.8"/>
      <rect id="ITEM_5_NODE" x="-68" y="-82" width="136" height="136" rx="40" fill="var(--background)" stroke="var(--semantic-outcome)" stroke-width="2" stroke-opacity="0.58" data-badge-layer="outline"/>
      <text id="ITEM_5_HEAD" x="0.0" y="95.0" text-anchor="middle" font-weight="bold" font-size="29" fill="var(--semantic-outcome)" data-bg-id="ITEM_5_BG" fill-opacity="1.0" style="font-size: 31px; font-family: 'Segoe UI Variable Display', 'Aptos Display', 'Inter', 'Segoe UI', Helvetica, Arial, sans-serif; font-weight: 700; font-kerning: normal; font-feature-settings: &quot;kern&quot; 1, &quot;liga&quot; 1; letter-spacing:-0.4px;" data-final-font-size="31">
        <tspan x="0.0" dy="38.02px">Final Board Review</tspan>
      </text>
      <rect id="ITEM_5_HEAD_FRAME" x="-190" y="95" width="380" height="50" fill="none"/>
      <text id="ITEM_5_BODY" x="0.0" y="144.0" text-anchor="middle" font-size="21" fill="var(--primary-text)" data-bg-id="ITEM_5_BG" style="font-size: 23px; font-family: 'Segoe UI Variable Text', 'Aptos', 'Inter', 'Segoe UI', Helvetica, Arial, sans-serif; font-weight: 400; font-kerning: normal; font-feature-settings: &quot;kern&quot; 1, &quot;liga&quot; 1;" data-final-font-size="23">
        <tspan x="0.0" dy="49.36px">Airprox Board assigns risk category D</tspan>
        <tspan x="0.0" dy="26.45px">for inconclusive data</tspan>
      </text>
      <rect id="ITEM_5_BODY_FRAME" x="-188" y="144" width="376" height="176" fill="none"/>
      <g id="ITEM_5_ICON" transform="translate(-41.0, -55.0)" data-icon-size="82" stroke-linecap="round" stroke-linejoin="round" data-badge-treatment="clean">
        <g transform="translate(-3.4745762711864407,-3.4745762711864407) scale(3.7062146892655368)" vector-effect="non-scaling-stroke" stroke-width="2.70" stroke-linecap="round" stroke-linejoin="round" stroke-opacity="1.0">
          <path d="m14 13-8.381 8.38a1 1 0 0 1-3.001-3l8.384-8.381" vector-effect="non-scaling-stroke" fill="none" stroke="var(--primary-text)"/>
          <path d="m16 16 6-6" vector-effect="non-scaling-stroke" fill="none" stroke="var(--primary-text)"/>
          <path d="m21.5 10.5-8-8" vector-effect="non-scaling-stroke" fill="none" stroke="var(--primary-text)"/>
          <path d="m8 8 6-6" vector-effect="non-scaling-stroke" fill="none" stroke="var(--primary-text)"/>
          <path d="m8.5 7.5 8 8" vector-effect="non-scaling-stroke" fill="none" stroke="var(--primary-text)"/>
        </g>
      </g>
    </g>
    <line id="PHX_SEQUENCE_MIDROUTE_ARROW_1" x1="932.0" y1="508.0" x2="988.0" y2="508.0" stroke="var(--muted-text)" opacity="0.92" stroke-width="5" stroke-linecap="round" marker-end="url(#svg1557ccf6-PHX_SEQUENCE_DIRECTION_ARROW)" data-direction-cue="forward"/>
  </g>
  <text id="SOURCE_NOTE" x="134.0" y="1058.0" fill="var(--muted-text)" opacity="0.88" style="font-family: var(--font-family); font-size: 20px;">Source: Introduction</text>
</svg>
