<?xml version='1.0' encoding='utf-8'?>
<svg xmlns="http://www.w3.org/2000/svg" width="1920" height="1080" viewBox="0 0 1920 1080" data-theme="dark" data-semantic-intent="sequence" data-relation-type="sequence" data-site-visual-identity="signal-cobalt">
  <style>
        @font-face {
            font-family: 'Inter';
            src: url('assets/fonts/Inter-Regular.ttf') format('truetype');
            font-weight: 400;
            font-style: normal;
            font-display: swap;
        }
        @font-face {
            font-family: 'Inter';
            src: url('assets/fonts/Inter-Bold.ttf') format('truetype');
            font-weight: 600;
            font-style: normal;
            font-display: swap;
        }
        @font-face {
            font-family: 'Inter';
            src: url('assets/fonts/Inter-Bold.ttf') format('truetype');
            font-weight: 800;
            font-style: normal;
            font-display: swap;
        }
        
:root {
    --background: #0f172a;
    --panel: #1e293b;
    --primary-text: #f1f5f9;
    --muted-text: #94a3b8;
    --inverse-text: #0f172a;
    --border: #334155;
    --shadow-color: #000000;
    --icon-pad-bg: #1e293b;
    --art-glow: #7dd3fc;
    --art-glow-opacity: 0.18;
    --art-sheen: #ffffff;
    --art-sheen-opacity: 0.18;
    --art-shadow: #000000;
    --art-shadow-opacity: 0.28;
    --art-muted-line: #64748b;
    --art-panel-tint: #1e293b;
    --semantic-risk: #f87171;
    --semantic-warning: #fb923c;
    --semantic-uncertain: #fbbf24;
    --semantic-evidence: #60a5fa;
    --semantic-claim: #c084fc;
    --semantic-positive: #4ade80;
    --semantic-outcome: #22d3ee;
    --font-family: 'Inter', 'Segoe UI', 'Kalam', Roboto, Helvetica, Arial, sans-serif;
    --radius-xl: 16px;
    --font-family-headline: 'Segoe UI Variable Display', 'Aptos Display', 'Inter', 'Segoe UI', Helvetica, Arial, sans-serif;
    --font-family-body: 'Segoe UI Variable Text', 'Aptos', 'Inter', 'Segoe UI', Helvetica, Arial, sans-serif;
    --font-heading: var(--font-family-headline);
    --font-body: var(--font-family-body);
    --font-size-h1: 64px;
    --font-size-h2: 42px;
    --font-size-h3: 29px;
    --font-size-body: 21px;
    --font-size-caption: 17px;
    --secondary-text: var(--muted-text);
    --panel-border: var(--border);
    --font-weight-normal: 400;
    --font-weight-medium: 500;
    --font-weight-semibold: 600;
    --font-weight-bold: 700;
    --spacing-gutter-pct: 0.07;
    --spacing-top-pct: 0.15;
    --spacing-bottom-pct: 0.07;
    --spacing-title-y-pct: 0.055;
    --accent-1: #93c5fd;
    --accent-2: #60a5fa;
    --accent-3: #818cf8;
    --accent-4: #a78bfa;
    --accent-5: #38bdf8;
    --accent-6: #fb923c;
}
:root[data-theme="dark"] {
    --background: #0f172a;
    --panel: #1e293b;
    --primary-text: #f1f5f9;
    --muted-text: #94a3b8;
    --inverse-text: #0f172a;
    --border: #334155;
    --shadow-color: #000000;
    --icon-pad-bg: #1e293b;
    --art-glow: #7dd3fc;
    --art-glow-opacity: 0.18;
    --art-sheen: #ffffff;
    --art-sheen-opacity: 0.18;
    --art-shadow: #000000;
    --art-shadow-opacity: 0.28;
    --art-muted-line: #64748b;
    --art-panel-tint: #1e293b;
    --semantic-risk: #f87171;
    --semantic-warning: #fb923c;
    --semantic-uncertain: #fbbf24;
    --semantic-evidence: #60a5fa;
    --semantic-claim: #c084fc;
    --semantic-positive: #4ade80;
    --semantic-outcome: #22d3ee;
    --accent-1: #93c5fd;
    --accent-2: #60a5fa;
    --accent-3: #818cf8;
    --accent-4: #a78bfa;
    --accent-5: #38bdf8;
    --accent-6: #fb923c;
}
:root[data-theme="light"] {
    --background: #f8fafc;
    --panel: #ffffff;
    --primary-text: #0f172a;
    --muted-text: #64748b;
    --inverse-text: #ffffff;
    --border: #e2e8f0;
    --shadow-color: #000000;
    --icon-pad-bg: #1e293b;
    --art-glow: #0891b2;
    --art-glow-opacity: 0.10;
    --art-sheen: #ffffff;
    --art-sheen-opacity: 0.34;
    --art-shadow: #0f172a;
    --art-shadow-opacity: 0.14;
    --art-muted-line: #94a3b8;
    --art-panel-tint: #f1f5f9;
    --semantic-risk: #b91c1c;
    --semantic-warning: #c2410c;
    --semantic-uncertain: #a16207;
    --semantic-evidence: #1d4ed8;
    --semantic-claim: #6d28d9;
    --semantic-positive: #15803d;
    --semantic-outcome: #0e7490;
    --accent-1: #1d4ed8;
    --accent-2: #2563eb;
    --accent-3: #4f46e5;
    --accent-4: #6d28d9;
    --accent-5: #0369a1;
    --accent-6: #c2410c;
}</style>
  <rect x="0" y="0" width="1.92E+3" height="1.08E+3" fill="#252a34" stroke="none" id="programmatic_background"/>
  <line id="HEADER_DECOR" x1="960.0" x2="1080.0" y1="135.0" y2="135.0" stroke="var(--accent-1)" stroke-width="6" stroke-linecap="round"/>
  <defs>
    <pattern id="svg96b8003d-napkin-hatch" patternUnits="userSpaceOnUse" width="12" height="12">
      <path d="M -3 12 L 12 -3 M 0 15 L 15 0" fill="none" stroke="var(--primary-text)" stroke-width="1" stroke-opacity="0.05"/>
    </pattern>
    <radialGradient id="svg96b8003d-universal-edge-vignette" cx="50%" cy="50%" r="72%">
      <stop offset="0%" stop-color="var(--background)" stop-opacity="0"/>
      <stop offset="72%" stop-color="var(--background)" stop-opacity="0.12"/>
      <stop offset="100%" stop-color="var(--primary-text)" stop-opacity="0.08"/>
    </radialGradient>
    <linearGradient id="svg96b8003d-universal-surface-sheen" x1="0%" y1="0%" x2="100%" y2="100%">
      <stop offset="0%" stop-color="var(--art-sheen)" stop-opacity="var(--art-sheen-opacity)"/>
      <stop offset="46%" stop-color="var(--art-sheen)" stop-opacity="0.035"/>
      <stop offset="100%" stop-color="var(--art-panel-tint)" stop-opacity="0.14"/>
    </linearGradient>
    <radialGradient id="svg96b8003d-universal-icon-aura" cx="50%" cy="42%" r="64%">
      <stop offset="0%" stop-color="var(--art-glow)" stop-opacity="var(--art-glow-opacity)"/>
      <stop offset="100%" stop-color="var(--background)" stop-opacity="0"/>
    </radialGradient>
    <linearGradient id="svg96b8003d-timeline-snake-route-glow" x1="0%" y1="0%" x2="100%" y2="100%">
      <stop offset="0%" stop-color="var(--art-glow)" stop-opacity="0"/>
      <stop offset="48%" stop-color="var(--art-glow)" stop-opacity="var(--art-glow-opacity)"/>
      <stop offset="100%" stop-color="var(--art-glow)" stop-opacity="0"/>
    </linearGradient>
    <linearGradient id="svg96b8003d-timeline-snake-card-sheen" x1="0%" y1="0%" x2="100%" y2="100%">
      <stop offset="0%" stop-color="var(--art-sheen)" stop-opacity="var(--art-sheen-opacity)"/>
      <stop offset="100%" stop-color="var(--art-panel-tint)" stop-opacity="0.12"/>
    </linearGradient>
    <filter id="svg96b8003d-text-glow" x="-20%" y="-20%" width="140%" height="140%">
      <feDropShadow dx="0" dy="0" stdDeviation="2" flood-color="#000000" flood-opacity="0.4"/>
    </filter>
    <filter id="svg96b8003d-shadow" x="-30%" y="-30%" width="160%" height="160%">
      <feDropShadow dx="0" dy="2" stdDeviation="3" flood-color="#000000" flood-opacity="0.08"/>
      <feDropShadow dx="0" dy="6" stdDeviation="10" flood-color="#000000" flood-opacity="0.12"/>
    </filter>
    <marker id="svg96b8003d-arrowhead" markerWidth="10" markerHeight="7" refX="9" refY="3.5" orient="auto" markerUnits="strokeWidth">
      <polygon points="0 0, 10 3.5, 0 7" fill="var(--muted-text)" opacity="0.6"/>
    </marker>
    <marker id="svg96b8003d-PHX_SEQUENCE_DIRECTION_ARROW" markerWidth="18" markerHeight="18" refX="16" refY="9" orient="auto" markerUnits="userSpaceOnUse">
      <path d="M 0 0 L 18 9 L 0 18 Z" fill="var(--muted-text)" opacity="0.9"/>
    </marker>
  </defs>
  <rect width="100%" height="100%" fill="var(--background)" id="CANVAS_BG"/>
  <rect width="100%" height="100%" fill="url(#svg96b8003d-napkin-hatch)"/>
  <rect id="UNIVERSAL_EDGE_VIGNETTE" width="100%" height="100%" fill="url(#svg96b8003d-universal-edge-vignette)" opacity="0.62"/>
  <text id="TITLE" x="960.0" y="59" text-anchor="middle" font-size="63" font-weight="700" fill="#f1f5f9" style="font-size: 69px; font-family: 'Segoe UI Variable Display', 'Aptos Display', 'Inter', 'Segoe UI', Helvetica, Arial, sans-serif; font-weight: 800; font-kerning: normal; font-feature-settings: &quot;kern&quot; 1, &quot;liga&quot; 1; letter-spacing:-1.2px;" data-final-font-size="69">
    <tspan x="960.0" dy="70.47px">Alloa UFO Sighting Key Stages</tspan>
  </text>
  <rect id="TITLE_FRAME" x="134" y="59" width="1652" height="103" fill="none"/>
  <g id="DIAGRAM_SCALER" transform="translate(50.3, 30.2) scale(0.95)">
    <path d="M 480 360 L 1440 360 C 1590 360 1590 750 1440 750 L 480 750" fill="none" stroke="var(--muted-text)" stroke-width="5" stroke-linecap="round" stroke-opacity="0.26" marker-end="url(#svg96b8003d-PHX_SEQUENCE_DIRECTION_ARROW)" data-direction-cue="forward"/>
    <g transform="translate(480.0, 360.0)">
      <circle id="ITEM_1_NODE" r="50" fill="none" stroke="var(--semantic-claim)" stroke-width="2" stroke-opacity="0.58" data-badge-layer="outline"/>
      <rect id="ITEM_1_TEXT_BG" x="-208.0" y="74.0" width="416.0" height="206.0" rx="22" fill="var(--panel)" fill-opacity="0.94" stroke="var(--primary-text)" stroke-opacity="0.12" stroke-width="1.5"/>
      <text id="ITEM_1_HEAD" data-bg-id="ITEM_1_TEXT_BG" text-anchor="middle" font-weight="bold" font-size="27" fill="var(--semantic-claim)" x="0.0" y="90.0" fill-opacity="1.0" stroke="none" style="font-size: 31px; font-family: 'Segoe UI Variable Display', 'Aptos Display', 'Inter', 'Segoe UI', Helvetica, Arial, sans-serif; font-weight: 700; font-kerning: normal; font-feature-settings: &quot;kern&quot; 1, &quot;liga&quot; 1; letter-spacing:-0.4px;" data-final-font-size="31">
        <tspan x="0.0" dy="31.02px">December 1998 Sighting</tspan>
      </text>
      <rect id="ITEM_1_HEAD_FRAME" x="-190" y="90" width="380" height="45" fill="none"/>
      <text id="ITEM_1_BODY" data-bg-id="ITEM_1_TEXT_BG" text-anchor="middle" font-size="19.5" fill="var(--primary-text)" x="0.0" y="144.0" style="font-size: 23px; font-family: 'Segoe UI Variable Text', 'Aptos', 'Inter', 'Segoe UI', Helvetica, Arial, sans-serif; font-weight: 400; font-kerning: normal; font-feature-settings: &quot;kern&quot; 1, &quot;liga&quot; 1;" data-final-font-size="23">
        <tspan x="0.0" dy="35.66px">Two witnesses see a bright silver oval</tspan>
        <tspan x="0.0" dy="26.45px">moving across sky</tspan>
      </text>
      <rect id="ITEM_1_BODY_FRAME" x="-190" y="144" width="380" height="120" fill="none"/>
      <circle id="TIMELINE_SNAKE_ART_MILESTONE_AURA_1" cx="0" cy="0" r="58" fill="url(#svg96b8003d-universal-icon-aura)" opacity="0.82" stroke="var(--semantic-claim)" stroke-opacity="1.0" display="none" data-suppressed-decoration="redundant-badge-ring"/>
      <circle id="ITEM_1_PAD" cx="0" cy="0" r="39" fill="var(--icon-pad-bg)" stroke="var(--semantic-claim)" opacity="1" fill-opacity="0.9" stroke-width="2" stroke-opacity="0.72" data-badge-layer="pad"/>
      <circle id="ITEM_1_PAD_INNER" cx="0" cy="0" r="30.42" fill="var(--semantic-claim)" fill-opacity="0.12" stroke="none" data-badge-layer="tint"/>
      <circle cx="0" cy="0" r="31.2" fill="none" stroke="var(--accent-1)" stroke-width="3" stroke-dasharray="6 4" display="none" data-suppressed-decoration="redundant-badge-ring"/>
      <g id="ITEM_1_ICON" transform="translate(-30.0, -30.0)" data-icon-size="60" stroke-linecap="round" stroke-linejoin="round" data-badge-treatment="clean">
        <g transform="translate(-4.727256637168144,-6.6116814159292066) scale(2.153628318584071)">
          <path d="M20 9L22 6H27V9H30V15L22 16L14 15L15.5646 9.43999C15.6335 9.17999 15.8696 9 16.1353 9H20Z" fill="#CDC4D6"/>
          <path d="M22 16H30V23L17 26L4 23L2.03838 17.2837C1.85708 16.6418 2.34056 16 3.01543 16H22Z" fill="#CDC4D6"/>
          <path d="M24.66 12.99H25.33C25.7 12.99 25.99 12.69 25.99 12.33V11.66C25.99 11.29 25.69 11 25.33 11H24.66C24.29 11 24 11.3 24 11.66V12.33C24 12.7 24.29 12.99 24.66 12.99Z" fill="#26EAFC"/>
          <path d="M4 23L5.801 29.2731C5.9204 29.7013 6.31841 30 6.76617 30H28.995C29.5522 30 30 29.5519 30 29.0043V23H4Z" fill="#CA0B4A"/>
          <path d="M21 11C21.54 11 22 11 22 12C22 12.9821 21.5563 12.99 21.0289 12.9995L21 13H14.5665L15.1242 11H21Z" fill="#00A6ED"/>
          <path d="M15.3362 21H14.6638C14.3017 21 14 20.6983 14 20.3362V19.6638C14 19.3017 14.2931 19 14.6638 19H15.3362C15.6983 19 16 19.2931 16 19.6638V20.3362C16 20.6983 15.7069 21 15.3362 21Z" fill="#00A6ED"/>
          <path d="M18.6638 21H19.3362C19.7069 21 20 20.6983 20 20.3362V19.6638C20 19.2931 19.6983 19 19.3362 19H18.6638C18.2931 19 18 19.3017 18 19.6638V20.3362C18 20.6983 18.2931 21 18.6638 21Z" fill="#00A6ED"/>
          <path d="M23.3362 21H22.6638C22.2931 21 22 20.6983 22 20.3362V19.6638C22 19.3017 22.2931 19 22.6638 19H23.3362C23.6983 19 24 19.2931 24 19.6638V20.3362C24 20.6983 23.7069 21 23.3362 21Z" fill="#00A6ED"/>
          <path d="M26.6638 21H27.3362C27.7069 21 28 20.6983 28 20.3362V19.6638C28 19.2931 27.6983 19 27.3362 19H26.6638C26.2931 19 26 19.3017 26 19.6638V20.3362C26 20.6983 26.2931 21 26.6638 21Z" fill="#00A6ED"/>
          <path d="M25.33 12.99H24.66C24.29 12.99 24 12.7 24 12.33V11.66C24 11.3 24.29 11 24.66 11H25.33C25.69 11 25.99 11.29 25.99 11.66V12.33C25.99 12.69 25.7 12.99 25.33 12.99Z" fill="#00A6ED"/>
          <path d="M30.01 27.6699C28.26 27.6699 28.26 28.7899 26.5 28.7899C24.75 28.7899 24.75 27.6699 22.99 27.6699C21.24 27.6699 21.24 28.7899 19.49 28.7899C17.74 28.7899 17.74 27.6699 15.99 27.6699C14.24 27.6699 14.24 28.7899 12.49 28.7899C10.74 28.7899 10.74 27.6699 8.99 27.6699C7.24 27.6699 7.24 28.7899 5.5 28.7899C3.75 28.7899 3.75 27.6699 2 27.6699V29.9899H30L30.01 27.6699Z" fill="#00A6ED"/>
          <path d="M26.5962 4C26.8077 4 26.9904 4.18091 26.9904 4.41206H27V6H22L22.6635 4.84422C22.9615 4.3216 23.5096 4 24.0962 4H26.5962Z" fill="#533566"/>
          <path d="M5 16H30V15H5.58C5.26 15 5 15.2626 5 15.5859V16Z" fill="#533566"/>
        </g>
      </g>
    </g>
    <g transform="translate(1440.0, 360.0)">
      <circle id="ITEM_2_NODE" r="50" fill="none" stroke="var(--accent-2)" stroke-width="2" stroke-opacity="0.58" data-badge-layer="outline"/>
      <rect id="ITEM_2_TEXT_BG" x="-208.0" y="74.0" width="416.0" height="206.0" rx="22" fill="var(--panel)" fill-opacity="0.94" stroke="var(--primary-text)" stroke-opacity="0.12" stroke-width="1.5"/>
      <text id="ITEM_2_HEAD" data-bg-id="ITEM_2_TEXT_BG" text-anchor="middle" font-weight="bold" font-size="27" fill="var(--accent-2)" x="0.0" y="90.0" fill-opacity="1.0" stroke="none" style="font-size: 31px; font-family: 'Segoe UI Variable Display', 'Aptos Display', 'Inter', 'Segoe UI', Helvetica, Arial, sans-serif; font-weight: 700; font-kerning: normal; font-feature-settings: &quot;kern&quot; 1, &quot;liga&quot; 1; letter-spacing:-0.4px;" data-final-font-size="31">
        <tspan x="0.0" dy="31.02px">NUFORC Submission</tspan>
      </text>
      <rect id="ITEM_2_HEAD_FRAME" x="-190" y="90" width="380" height="45" fill="none"/>
      <text id="ITEM_2_BODY" data-bg-id="ITEM_2_TEXT_BG" text-anchor="middle" font-size="19.5" fill="var(--primary-text)" x="0.0" y="144.0" style="font-size: 23px; font-family: 'Segoe UI Variable Text', 'Aptos', 'Inter', 'Segoe UI', Helvetica, Arial, sans-serif; font-weight: 400; font-kerning: normal; font-feature-settings: &quot;kern&quot; 1, &quot;liga&quot; 1;" data-final-font-size="23">
        <tspan x="0.0" dy="35.66px">Civilian data base records the 1998</tspan>
        <tspan x="0.0" dy="26.45px">account for public review</tspan>
      </text>
      <rect id="ITEM_2_BODY_FRAME" x="-190" y="144" width="380" height="120" fill="none"/>
      <circle id="TIMELINE_SNAKE_ART_MILESTONE_AURA_2" cx="0" cy="0" r="58" fill="url(#svg96b8003d-universal-icon-aura)" opacity="0.82" stroke="var(--accent-2)" stroke-opacity="1.0" display="none" data-suppressed-decoration="redundant-badge-ring"/>
      <circle id="ITEM_2_PAD" cx="0" cy="0" r="39" fill="var(--icon-pad-bg)" stroke="var(--accent-2)" opacity="1" fill-opacity="0.9" stroke-width="2" stroke-opacity="0.72" data-badge-layer="pad"/>
      <circle id="ITEM_2_PAD_INNER" cx="0" cy="0" r="30.42" fill="var(--accent-2)" fill-opacity="0.12" stroke="none" data-badge-layer="tint"/>
      <circle cx="0" cy="0" r="31.2" fill="none" stroke="var(--accent-2)" stroke-width="3" stroke-dasharray="6 4" display="none" data-suppressed-decoration="redundant-badge-ring"/>
      <g id="ITEM_2_ICON" transform="translate(-30.0, -30.0)" data-icon-size="60" stroke-linecap="round" stroke-linejoin="round" data-badge-treatment="clean">
        <g transform="translate(-2.9979661016949173,-2.9979661016949173) scale(2.7498305084745764)" vector-effect="non-scaling-stroke" stroke-width="2.43" stroke-linecap="round" stroke-linejoin="round" stroke-opacity="1.0">
          <rect width="20" height="14" x="2" y="3" rx="2" vector-effect="non-scaling-stroke" fill="none" stroke="#f1f5f9"/>
          <line x1="8" x2="16" y1="21" y2="21" vector-effect="non-scaling-stroke" fill="none" stroke="#f1f5f9"/>
          <line x1="12" x2="12" y1="17" y2="21" vector-effect="non-scaling-stroke" fill="none" stroke="#f1f5f9"/>
        </g>
      </g>
    </g>
    <g transform="translate(1440.0, 750.0)">
      <circle id="ITEM_3_NODE" r="50" fill="none" stroke="var(--semantic-claim)" stroke-width="2" stroke-opacity="0.58" data-badge-layer="outline"/>
      <rect id="ITEM_3_TEXT_BG" x="-208.0" y="74.0" width="416.0" height="206.0" rx="22" fill="var(--panel)" fill-opacity="0.94" stroke="var(--primary-text)" stroke-opacity="0.12" stroke-width="1.5"/>
      <text id="ITEM_3_HEAD" data-bg-id="ITEM_3_TEXT_BG" text-anchor="middle" font-weight="bold" font-size="27" fill="var(--semantic-claim)" x="0.0" y="90.0" fill-opacity="1.0" stroke="none" style="font-size: 31px; font-family: 'Segoe UI Variable Display', 'Aptos Display', 'Inter', 'Segoe UI', Helvetica, Arial, sans-serif; font-weight: 700; font-kerning: normal; font-feature-settings: &quot;kern&quot; 1, &quot;liga&quot; 1; letter-spacing:-0.4px;" data-final-font-size="31">
        <tspan x="0.0" dy="31.02px">May 2022 Claim</tspan>
      </text>
      <rect id="ITEM_3_HEAD_FRAME" x="-190" y="90" width="380" height="45" fill="none"/>
      <text id="ITEM_3_BODY" data-bg-id="ITEM_3_TEXT_BG" text-anchor="middle" font-size="19.5" fill="var(--primary-text)" x="0.0" y="144.0" style="font-size: 23px; font-family: 'Segoe UI Variable Text', 'Aptos', 'Inter', 'Segoe UI', Helvetica, Arial, sans-serif; font-weight: 400; font-kerning: normal; font-feature-settings: &quot;kern&quot; 1, &quot;liga&quot; 1;" data-final-font-size="23">
        <tspan x="0.0" dy="35.66px">A triangular object is reported</tspan>
        <tspan x="0.0" dy="26.45px">for seven minutes in Alloa</tspan>
      </text>
      <rect id="ITEM_3_BODY_FRAME" x="-190" y="144" width="380" height="120" fill="none"/>
      <circle id="TIMELINE_SNAKE_ART_MILESTONE_AURA_3" cx="0" cy="0" r="58" fill="url(#svg96b8003d-universal-icon-aura)" opacity="0.82" stroke="var(--semantic-claim)" stroke-opacity="1.0" display="none" data-suppressed-decoration="redundant-badge-ring"/>
      <circle id="ITEM_3_PAD" cx="0" cy="0" r="39" fill="var(--icon-pad-bg)" stroke="var(--semantic-claim)" opacity="1" fill-opacity="0.9" stroke-width="2" stroke-opacity="0.72" data-badge-layer="pad"/>
      <circle id="ITEM_3_PAD_INNER" cx="0" cy="0" r="30.42" fill="var(--semantic-claim)" fill-opacity="0.12" stroke="none" data-badge-layer="tint"/>
      <circle cx="0" cy="0" r="31.2" fill="none" stroke="var(--accent-3)" stroke-width="3" stroke-dasharray="6 4" display="none" data-suppressed-decoration="redundant-badge-ring"/>
      <g id="ITEM_3_ICON" transform="translate(-30.0, -30.0)" data-icon-size="60" stroke-linecap="round" stroke-linejoin="round" data-badge-treatment="clean">
        <g transform="translate(-4.765714285714288,-4.765714285714288) scale(2.172857142857143)">
          <path d="M2 6C2 3.79086 3.79086 2 6 2H26C28.2091 2 30 3.79086 30 6V26C30 28.2091 28.2091 30 26 30H6C3.79086 30 2 28.2091 2 26V6Z" fill="#00A6ED"/>
          <path d="M13.2612 9C13.2538 8.91766 13.25 8.83427 13.25 8.75C13.25 7.23122 14.4812 6 16 6C17.5188 6 18.75 7.23122 18.75 8.75C18.75 8.83427 18.7462 8.91766 18.7388 9H20.75C20.8881 9 21 9.11193 21 9.25V20.75C21 20.8881 20.8881 21 20.75 21H11.25C11.1119 21 11 20.8881 11 20.75V9.25C11 9.11193 11.1119 9 11.25 9H13.2612ZM14.2677 9H17.7323C17.744 8.91835 17.75 8.83488 17.75 8.75C17.75 7.7835 16.9665 7 16 7C15.0335 7 14.25 7.7835 14.25 8.75C14.25 8.83488 14.256 8.91835 14.2677 9Z" fill="white"/>
          <path d="M8 9C7.44772 9 7 9.44771 7 10V20C7 20.5523 7.44772 21 8 21H9.75C9.88807 21 10 20.8881 10 20.75V9.25C10 9.11193 9.88807 9 9.75 9H8Z" fill="white"/>
          <path d="M22 20.75C22 20.8881 22.1119 21 22.25 21H24C24.5523 21 25 20.5523 25 20V10C25 9.44772 24.5523 9 24 9H22.25C22.1119 9 22 9.11193 22 9.25V20.75Z" fill="white"/>
          <path d="M26 23.5C26 23.2239 25.7761 23 25.5 23H6.5C6.22386 23 6 23.2239 6 23.5C6 23.7761 6.22386 24 6.5 24H9C9 24.2652 9.10536 24.5196 9.29289 24.7071C9.48043 24.8946 9.73478 25 10 25C10.2652 25 10.5196 24.8946 10.7071 24.7071C10.8946 24.5196 11 24.2652 11 24H13C13 24.2652 13.1054 24.5196 13.2929 24.7071C13.4804 24.8946 13.7348 25 14 25C14.2652 25 14.5196 24.8946 14.7071 24.7071C14.8946 24.5196 15 24.2652 15 24H17C17 24.2652 17.1054 24.5196 17.2929 24.7071C17.4804 24.8946 17.7348 25 18 25C18.2652 25 18.5196 24.8946 18.7071 24.7071C18.8946 24.5196 19 24.2652 19 24H21C21 24.2652 21.1054 24.5196 21.2929 24.7071C21.4804 24.8946 21.7348 25 22 25C22.2652 25 22.5196 24.8946 22.7071 24.7071C22.8946 24.5196 23 24.2652 23 24H25.5C25.7761 24 26 23.7761 26 23.5Z" fill="white"/>
        </g>
      </g>
    </g>
    <g transform="translate(480.0, 750.0)">
      <circle id="ITEM_4_NODE" r="50" fill="none" stroke="var(--semantic-outcome)" stroke-width="2" stroke-opacity="0.58" data-badge-layer="outline"/>
      <rect id="ITEM_4_TEXT_BG" x="-208.0" y="74.0" width="416.0" height="206.0" rx="22" fill="var(--panel)" fill-opacity="0.94" stroke="var(--primary-text)" stroke-opacity="0.12" stroke-width="1.5"/>
      <text id="ITEM_4_HEAD" data-bg-id="ITEM_4_TEXT_BG" text-anchor="middle" font-weight="bold" font-size="27" fill="var(--semantic-outcome)" x="0.0" y="90.0" fill-opacity="1.0" stroke="none" style="font-size: 31px; font-family: 'Segoe UI Variable Display', 'Aptos Display', 'Inter', 'Segoe UI', Helvetica, Arial, sans-serif; font-weight: 700; font-kerning: normal; font-feature-settings: &quot;kern&quot; 1, &quot;liga&quot; 1; letter-spacing:-0.4px;" data-final-font-size="31">
        <tspan x="0.0" dy="31.02px">Current Status</tspan>
      </text>
      <rect id="ITEM_4_HEAD_FRAME" x="-190" y="90" width="380" height="45" fill="none"/>
      <text id="ITEM_4_BODY" data-bg-id="ITEM_4_TEXT_BG" text-anchor="middle" font-size="19.5" fill="var(--primary-text)" x="0.0" y="144.0" style="font-size: 23px; font-family: 'Segoe UI Variable Text', 'Aptos', 'Inter', 'Segoe UI', Helvetica, Arial, sans-serif; font-weight: 400; font-kerning: normal; font-feature-settings: &quot;kern&quot; 1, &quot;liga&quot; 1;" data-final-font-size="23">
        <tspan x="0.0" dy="35.66px">Reports remain as witness testimony</tspan>
        <tspan x="0.0" dy="26.45px">without independent verification</tspan>
      </text>
      <rect id="ITEM_4_BODY_FRAME" x="-190" y="144" width="380" height="120" fill="none"/>
      <circle id="TIMELINE_SNAKE_ART_MILESTONE_AURA_4" cx="0" cy="0" r="58" fill="url(#svg96b8003d-universal-icon-aura)" opacity="0.82" stroke="var(--semantic-outcome)" stroke-opacity="1.0" display="none" data-suppressed-decoration="redundant-badge-ring"/>
      <circle id="ITEM_4_PAD" cx="0" cy="0" r="39" fill="var(--icon-pad-bg)" stroke="var(--semantic-outcome)" opacity="1" fill-opacity="0.9" stroke-width="2" stroke-opacity="0.72" data-badge-layer="pad"/>
      <circle id="ITEM_4_PAD_INNER" cx="0" cy="0" r="30.42" fill="var(--semantic-outcome)" fill-opacity="0.12" stroke="none" data-badge-layer="tint"/>
      <circle cx="0" cy="0" r="31.2" fill="none" stroke="var(--accent-4)" stroke-width="3" stroke-dasharray="6 4" display="none" data-suppressed-decoration="redundant-badge-ring"/>
      <g id="ITEM_4_ICON" transform="translate(-30.0, -30.0)" data-icon-size="60" stroke-linecap="round" stroke-linejoin="round" data-badge-treatment="clean">
        <g transform="translate(-2.9979661016949173,-2.9979661016949173) scale(2.7498305084745764)" vector-effect="non-scaling-stroke" stroke-width="2.43" stroke-linecap="round" stroke-linejoin="round" stroke-opacity="1.0">
          <ellipse cx="12" cy="5" rx="9" ry="3" vector-effect="non-scaling-stroke" fill="none" stroke="#f1f5f9"/>
          <path d="M3 5V19A9 3 0 0 0 21 19V5" vector-effect="non-scaling-stroke" fill="none" stroke="#f1f5f9"/>
          <path d="M3 12A9 3 0 0 0 21 12" vector-effect="non-scaling-stroke" fill="none" stroke="#f1f5f9"/>
        </g>
      </g>
    </g>
    <line id="PHX_SEQUENCE_MIDROUTE_ARROW_1" x1="988.0" y1="750.0" x2="932.0" y2="750.0" stroke="var(--muted-text)" opacity="0.92" stroke-width="5" stroke-linecap="round" marker-end="url(#svg96b8003d-PHX_SEQUENCE_DIRECTION_ARROW)" data-direction-cue="forward"/>
    <line id="PHX_SEQUENCE_MIDROUTE_ARROW_2" x1="932.0" y1="360.0" x2="988.0" y2="360.0" stroke="var(--muted-text)" opacity="0.92" stroke-width="5" stroke-linecap="round" marker-end="url(#svg96b8003d-PHX_SEQUENCE_DIRECTION_ARROW)" data-direction-cue="forward"/>
  </g>
  <text id="SOURCE_NOTE" x="134.0" y="1058.0" fill="var(--muted-text)" opacity="0.88" style="font-family: var(--font-family); font-size: 20px;">Source: Introduction</text>
  <text id="EDITORIAL_NOTE" x="1786.0" y="1058.0" fill="var(--semantic-uncertain)" opacity="0.92" style="font-family: var(--font-family); font-size: 20px;" text-anchor="end">Interpretations remain disputed; wording reflects source uncertainty.</text>
</svg>
