<?xml version='1.0' encoding='utf-8'?>
<svg xmlns="http://www.w3.org/2000/svg" width="1920" height="1080" viewBox="0 0 1920 1080" data-theme="light" data-semantic-intent="sequence" data-relation-type="sequence" data-site-visual-identity="signal-cobalt">
  <style>
        @font-face {
            font-family: 'Inter';
            src: url('assets/fonts/Inter-Regular.ttf') format('truetype');
            font-weight: 400;
            font-style: normal;
            font-display: swap;
        }
        @font-face {
            font-family: 'Inter';
            src: url('assets/fonts/Inter-Bold.ttf') format('truetype');
            font-weight: 600;
            font-style: normal;
            font-display: swap;
        }
        @font-face {
            font-family: 'Inter';
            src: url('assets/fonts/Inter-Bold.ttf') format('truetype');
            font-weight: 800;
            font-style: normal;
            font-display: swap;
        }
        
:root {
    --background: #f8fafc;
    --panel: #ffffff;
    --primary-text: #0f172a;
    --muted-text: #64748b;
    --inverse-text: #ffffff;
    --border: #e2e8f0;
    --shadow-color: #000000;
    --icon-pad-bg: #1e293b;
    --art-glow: #0891b2;
    --art-glow-opacity: 0.10;
    --art-sheen: #ffffff;
    --art-sheen-opacity: 0.34;
    --art-shadow: #0f172a;
    --art-shadow-opacity: 0.14;
    --art-muted-line: #94a3b8;
    --art-panel-tint: #f1f5f9;
    --semantic-risk: #b91c1c;
    --semantic-warning: #c2410c;
    --semantic-uncertain: #a16207;
    --semantic-evidence: #1d4ed8;
    --semantic-claim: #6d28d9;
    --semantic-positive: #15803d;
    --semantic-outcome: #0e7490;
    --font-family: 'Inter', 'Segoe UI', 'Kalam', Roboto, Helvetica, Arial, sans-serif;
    --radius-xl: 16px;
    --font-family-headline: 'Segoe UI Variable Display', 'Aptos Display', 'Inter', 'Segoe UI', Helvetica, Arial, sans-serif;
    --font-family-body: 'Segoe UI Variable Text', 'Aptos', 'Inter', 'Segoe UI', Helvetica, Arial, sans-serif;
    --font-heading: var(--font-family-headline);
    --font-body: var(--font-family-body);
    --font-size-h1: 64px;
    --font-size-h2: 42px;
    --font-size-h3: 29px;
    --font-size-body: 21px;
    --font-size-caption: 17px;
    --secondary-text: var(--muted-text);
    --panel-border: var(--border);
    --font-weight-normal: 400;
    --font-weight-medium: 500;
    --font-weight-semibold: 600;
    --font-weight-bold: 700;
    --spacing-gutter-pct: 0.07;
    --spacing-top-pct: 0.15;
    --spacing-bottom-pct: 0.07;
    --spacing-title-y-pct: 0.055;
    --accent-1: #1d4ed8;
    --accent-2: #2563eb;
    --accent-3: #4f46e5;
    --accent-4: #6d28d9;
    --accent-5: #0369a1;
    --accent-6: #c2410c;
}
:root[data-theme="dark"] {
    --background: #0f172a;
    --panel: #1e293b;
    --primary-text: #f1f5f9;
    --muted-text: #94a3b8;
    --inverse-text: #0f172a;
    --border: #334155;
    --shadow-color: #000000;
    --icon-pad-bg: #1e293b;
    --art-glow: #7dd3fc;
    --art-glow-opacity: 0.18;
    --art-sheen: #ffffff;
    --art-sheen-opacity: 0.18;
    --art-shadow: #000000;
    --art-shadow-opacity: 0.28;
    --art-muted-line: #64748b;
    --art-panel-tint: #1e293b;
    --semantic-risk: #f87171;
    --semantic-warning: #fb923c;
    --semantic-uncertain: #fbbf24;
    --semantic-evidence: #60a5fa;
    --semantic-claim: #c084fc;
    --semantic-positive: #4ade80;
    --semantic-outcome: #22d3ee;
    --accent-1: #93c5fd;
    --accent-2: #60a5fa;
    --accent-3: #818cf8;
    --accent-4: #a78bfa;
    --accent-5: #38bdf8;
    --accent-6: #fb923c;
}
:root[data-theme="light"] {
    --background: #f8fafc;
    --panel: #ffffff;
    --primary-text: #0f172a;
    --muted-text: #64748b;
    --inverse-text: #ffffff;
    --border: #e2e8f0;
    --shadow-color: #000000;
    --icon-pad-bg: #1e293b;
    --art-glow: #0891b2;
    --art-glow-opacity: 0.10;
    --art-sheen: #ffffff;
    --art-sheen-opacity: 0.34;
    --art-shadow: #0f172a;
    --art-shadow-opacity: 0.14;
    --art-muted-line: #94a3b8;
    --art-panel-tint: #f1f5f9;
    --semantic-risk: #b91c1c;
    --semantic-warning: #c2410c;
    --semantic-uncertain: #a16207;
    --semantic-evidence: #1d4ed8;
    --semantic-claim: #6d28d9;
    --semantic-positive: #15803d;
    --semantic-outcome: #0e7490;
    --accent-1: #1d4ed8;
    --accent-2: #2563eb;
    --accent-3: #4f46e5;
    --accent-4: #6d28d9;
    --accent-5: #0369a1;
    --accent-6: #c2410c;
}</style>
  <rect x="0" y="0" width="1.92E+3" height="1.08E+3" fill="#252a34" stroke="none" id="programmatic_background"/>
  <line id="HEADER_DECOR" x1="960.0" x2="1080.0" y1="125.0" y2="125.0" stroke="var(--accent-1)" stroke-width="6" stroke-linecap="round"/>
  <defs>
    <pattern id="svgbdb3088f-napkin-hatch" patternUnits="userSpaceOnUse" width="12" height="12">
      <path d="M -3 12 L 12 -3 M 0 15 L 15 0" fill="none" stroke="var(--primary-text)" stroke-width="1" stroke-opacity="0.05"/>
    </pattern>
    <filter id="svgbdb3088f-shadow" x="-30%" y="-30%" width="160%" height="160%">
      <feDropShadow dx="0" dy="3" stdDeviation="6" flood-color="#000000" flood-opacity="0.10"/>
      <feDropShadow dx="0" dy="8" stdDeviation="12" flood-color="#000000" flood-opacity="0.16"/>
    </filter>
    <marker id="svgbdb3088f-arrowhead" markerWidth="12" markerHeight="12" refX="10" refY="6" orient="auto">
      <path d="M 0 0 L 12 6 L 0 12 Z" fill="var(--muted-text)"/>
    </marker>
    <radialGradient id="svgbdb3088f-universal-edge-vignette" cx="50%" cy="50%" r="72%">
      <stop offset="0%" stop-color="var(--background)" stop-opacity="0"/>
      <stop offset="72%" stop-color="var(--background)" stop-opacity="0.12"/>
      <stop offset="100%" stop-color="var(--primary-text)" stop-opacity="0.08"/>
    </radialGradient>
    <linearGradient id="svgbdb3088f-universal-surface-sheen" x1="0%" y1="0%" x2="100%" y2="100%">
      <stop offset="0%" stop-color="var(--art-sheen)" stop-opacity="var(--art-sheen-opacity)"/>
      <stop offset="46%" stop-color="var(--art-sheen)" stop-opacity="0.035"/>
      <stop offset="100%" stop-color="var(--art-panel-tint)" stop-opacity="0.14"/>
    </linearGradient>
    <radialGradient id="svgbdb3088f-universal-icon-aura" cx="50%" cy="42%" r="64%">
      <stop offset="0%" stop-color="var(--art-glow)" stop-opacity="var(--art-glow-opacity)"/>
      <stop offset="100%" stop-color="var(--background)" stop-opacity="0"/>
    </radialGradient>
    <filter id="svgbdb3088f-text-glow" x="-20%" y="-20%" width="140%" height="140%">
      <feDropShadow dx="0" dy="0" stdDeviation="2" flood-color="#000000" flood-opacity="0.4"/>
    </filter>
  </defs>
  <rect width="100%" height="100%" fill="var(--background)" id="CANVAS_BG"/>
  <rect width="100%" height="100%" fill="url(#svgbdb3088f-napkin-hatch)"/>
  <rect id="UNIVERSAL_EDGE_VIGNETTE" width="100%" height="100%" fill="url(#svgbdb3088f-universal-edge-vignette)" opacity="0.62"/>
  <text id="TITLE" x="960.0" y="59" text-anchor="middle" font-size="58" font-weight="800" fill="#0f172a" style="font-size: 69px; font-family: 'Segoe UI Variable Display', 'Aptos Display', 'Inter', 'Segoe UI', Helvetica, Arial, sans-serif; font-weight: 800; font-kerning: normal; font-feature-settings: &quot;kern&quot; 1, &quot;liga&quot; 1; letter-spacing:-1.2px;" data-final-font-size="69">
    <tspan x="960.0" dy="70.47px">The 1990 Calvine Case Time line</tspan>
  </text>
  <rect id="TITLE_FRAME" x="134" y="56" width="1652" height="98" fill="none"/>
  <rect x="120" y="165" width="1680" height="820" rx="40" fill="var(--panel)" fill-opacity="0.22" stroke="var(--muted-text)" stroke-width="2.4" opacity="0.92"/>
  <path d="M 262.0 287.0 Q 311.0 287.0 360.0 447.0 Q 409.0 447.0 458.0 607.0 Q 507.0 607.0 556.0 767.0" fill="none" stroke="var(--muted-text)" stroke-width="10" stroke-linecap="round" stroke-linejoin="round" opacity="0.36" marker-end="url(#svgbdb3088f-arrowhead)"/>
  <g id="DIAGRAM_MAIN" transform="translate(-60 -20) scale(1.08)">
    <g filter="url(#svgbdb3088f-shadow)">
      <rect id="ITEM_1_BG" x="180.0" y="210.0" width="1030" height="176" rx="24" fill="var(--panel)" fill-opacity="0.97" stroke="var(--accent-1)" stroke-width="2.5"/>
      <rect x="180.0" y="210.0" width="1030" height="18" rx="9" fill="var(--accent-1)" fill-opacity="0.55"/>
      <circle id="ITEM_1_PAD" cx="262.0" cy="287.0" r="40" fill="var(--icon-pad-bg)" opacity="1" fill-opacity="0.9" stroke-width="2" stroke="var(--accent-1)" stroke-opacity="0.72" data-badge-layer="pad"/>
      <circle id="ITEM_1_PAD_INNER" cx="262.0" cy="287.0" r="31.20" fill="var(--accent-1)" fill-opacity="0.12" stroke="none" data-badge-layer="tint"/>
      <circle cx="262.0" cy="287.0" r="32" fill="none" stroke="var(--accent-1)" stroke-width="3" stroke-dasharray="6 4" display="none" data-suppressed-decoration="redundant-badge-ring"/>
      <g id="ITEM_1_ICON" transform="translate(232.0, 257.0)" data-icon-size="60" stroke-linecap="round" stroke-linejoin="round" data-badge-treatment="clean">
        <g transform="translate(-3.8440677966101764,-3.57966101694916) scale(0.1322033898305085)" vector-effect="non-scaling-stroke" fill="#f1f5f9" fill-opacity="1.0" stroke="none">
          <path fill="#f1f5f9" d="M334.5 85.22c-31.403.523-69.44 13.372-100.563 42.81l17.594 215.407l-6.468 77.657h58.125l15.282-37.72l21.124 37.72h151.53c7.896-58.587-44.23-130.167-74.53-130.375l-16.53 1.124c-36.103 7.265-49.647 27.03-66.314 49.78l-4.28 5.845l-6.72-2.69l-13.03-5.25l-14.283 36.595l-17.406-6.78l14.376-36.783l-11.906-4.78l-8.563-3.438l3.313-8.594c7.98-20.727 20.735-40.35 38.906-54.156c14.907-11.326 33.593-18.483 55.156-18.688c1.438-.013 2.88.014 4.344.063c1.917.063 3.856.167 5.813.343l2.5-18.157c-26.083-16.097-67.526-14.873-103.72-.72l-6.78-17.405c20.11-7.864 41.785-12.5 62.655-12.56c17.98-.054 35.357 3.307 50.563 10.874l5.593-40.656c-31.286-27.418-77.42-24.612-119.374-.594l-9.28-16.22c23.566-13.49 49.485-21.265 74.312-21.31c20.46-.04 40.183 5.176 57.28 16.78l2.188-15.844c.354-1.526.61-3.013.78-4.47c.002-.02 0-.04.002-.06c.357-10.548-4.066-18.356-12.938-25c-9.483-7.103-24.383-11.937-42.03-12.657a117 117 0 0 0-6.72-.094zm-194.406 77.31c-.838.01-1.678.03-2.5.064c-13.162.537-24.16 4.175-30.938 9.25c-6.776 5.075-9.702 10.64-8.937 18.844l-.595.062c.132 1.234.324 2.514.625 3.813l2.313 16.718c10.807-7.494 23.1-11.163 35.53-11.093c17.786.102 35.61 7.284 51.782 19.25l-11.094 15c-13.73-10.16-28.064-15.49-40.81-15.562c-11.988-.068-22.776 4.042-32.407 14.344l4.406 31.843c8.974-4.182 18.787-6.078 28.843-6.063c14.792.022 30.092 4.157 44 11.188l-8.438 16.687c-21.797-11.02-45.487-12.505-61.688-2l2.032 14.72a88 88 0 0 1 2.5-.064c14.633-.1 27.16 4.06 37.343 11.25c14.48 10.227 24.226 25.514 32.625 41.595l4.28 8.25l-8.218 4.344l-8.47 4.467L186 394.875l-16.438 8.875l-13.812-25.594l-9.156 4.844l-6.344 3.344l-4.875-5.25c-16.32-17.62-29.136-32.608-60.406-35.188l-9-.75c-32.087 15.312-47.556 38.284-42.44 76.25h190.44l-5.095-59.687l-.03-.064l13.593-162.625c-24.97-26.094-56.98-36.796-82.344-36.5zm229.344 99.032c-17.593.075-31.926 5.756-43.97 14.907c-12.36 9.39-22.03 22.778-29 37.592l26.657 10.72c14.056-18.898 30.816-38.795 61.813-48.344l-8.032-14.47c-1.3-.105-2.638-.295-3.906-.343a87 87 0 0 0-3.563-.063zM116.594 318c-4.288-.028-9.038.543-14.28 1.625l-9 10.656c23.388 6.11 38.254 19.727 50.75 32.94l10.655-5.626l8.843-4.688c-6.628-11.382-13.846-20.917-22.282-26.875c-6.494-4.586-13.685-7.535-22.874-7.967c-.593-.028-1.2-.06-1.812-.063z" vector-effect="non-scaling-stroke" stroke="none"/>
        </g>
      </g>
      <rect x="335.0" y="238.0" width="740.0" height="24" rx="12" fill="var(--accent-1)" fill-opacity="0.08"/>
      <text x="1176.0" y="252.0" text-anchor="end" font-size="17" font-weight="800" fill="var(--accent-1)" opacity="0.72">01</text>
      <text id="ITEM_1_HEAD" x="348.0" y="228.0" text-anchor="start" font-weight="800" font-size="30" fill="var(--accent-1)" data-bg-id="ITEM_1_BG" fill-opacity="1.0" style="font-size: 31px; font-family: 'Segoe UI Variable Display', 'Aptos Display', 'Inter', 'Segoe UI', Helvetica, Arial, sans-serif; font-weight: 700; font-kerning: normal; font-feature-settings: &quot;kern&quot; 1, &quot;liga&quot; 1; letter-spacing:-0.4px;" data-final-font-size="31">
        <tspan x="348.0" dy="25.52px">Initial Sighting</tspan>
      </text>
      <rect id="ITEM_1_HEAD_FRAME" x="348.0" y="228.0" width="670.0" height="34" fill="none"/>
      <text id="ITEM_1_BODY" x="348.0" y="270.0" text-anchor="start" font-size="23" fill="var(--primary-text)" data-bg-id="ITEM_1_BG" style="font-size: 23px; font-family: 'Segoe UI Variable Text', 'Aptos', 'Inter', 'Segoe UI', Helvetica, Arial, sans-serif; font-weight: 400; font-kerning: normal; font-feature-settings: &quot;kern&quot; 1, &quot;liga&quot; 1;" data-final-font-size="23">
        <tspan x="348.0" dy="31.91px">Two men witness a large diamond-shaped object</tspan>
      </text>
      <rect id="ITEM_1_BODY_FRAME" x="348.0" y="270.0" width="780.0" height="94.0" fill="none"/>
    </g>
    <g filter="url(#svgbdb3088f-shadow)">
      <rect id="ITEM_2_BG" x="278.0" y="370.0" width="1030" height="176" rx="24" fill="var(--panel)" fill-opacity="0.97" stroke="var(--accent-2)" stroke-width="2.5"/>
      <rect x="278.0" y="370.0" width="1030" height="18" rx="9" fill="var(--accent-2)" fill-opacity="0.55"/>
      <circle id="ITEM_2_PAD" cx="360.0" cy="447.0" r="40" fill="var(--icon-pad-bg)" opacity="1" fill-opacity="0.9" stroke-width="2" stroke="var(--accent-2)" stroke-opacity="0.72" data-badge-layer="pad"/>
      <circle id="ITEM_2_PAD_INNER" cx="360.0" cy="447.0" r="31.20" fill="var(--accent-2)" fill-opacity="0.12" stroke="none" data-badge-layer="tint"/>
      <circle cx="360.0" cy="447.0" r="32" fill="none" stroke="var(--accent-2)" stroke-width="3" stroke-dasharray="6 4" display="none" data-suppressed-decoration="redundant-badge-ring"/>
      <g id="ITEM_2_ICON" transform="translate(330.0, 417.0)" data-icon-size="60" stroke-linecap="round" stroke-linejoin="round" data-badge-treatment="clean">
        <g transform="translate(-5.65714285714286,-15.685714285714287) scale(2.2285714285714286)">
          <path d="M5.5 11C5.22386 11 5 11.2239 5 11.5V13H9V11.5C9 11.2239 8.77614 11 8.5 11H5.5Z" fill="#D3D3D3"/>
          <path d="M21.5 11C21.2239 11 21 11.2239 21 11.5V13H27V11.5C27 11.2239 26.7761 11 26.5 11H21.5Z" fill="#D3D3D3"/>
          <path d="M2 14C2 12.8954 2.89543 12 4 12H28C29.1046 12 30 12.8954 30 14V16.5L28 22L30 27.5V28C30 29.1046 29.1046 30 28 30H4C2.89543 30 2 29.1046 2 28V27.5L3.5 22L2 16.5V14Z" fill="#E6E6E6"/>
          <path d="M2 16.5C2 16.2239 2.22386 16 2.5 16H29.5C29.7761 16 30 16.2239 30 16.5V27.5C30 27.7761 29.7761 28 29.5 28H2.5C2.22386 28 2 27.7761 2 27.5V16.5Z" fill="#533566"/>
          <path d="M22 22C22 25.3137 19.3137 28 16 28C12.6863 28 10 25.3137 10 22C10 18.6863 12.6863 16 16 16C19.3137 16 22 18.6863 22 22Z" fill="#321B41"/>
          <path d="M16 27C18.7614 27 21 24.7614 21 22C21 19.2386 18.7614 17 16 17C13.2386 17 11 19.2386 11 22C11 24.7614 13.2386 27 16 27ZM16 29C12.134 29 9 25.866 9 22C9 18.134 12.134 15 16 15C19.866 15 23 18.134 23 22C23 25.866 19.866 29 16 29Z" fill="#9B9B9B"/>
          <path d="M18.5 22C18.5 23.3807 17.3807 24.5 16 24.5C14.6193 24.5 13.5 23.3807 13.5 22C13.5 20.6193 14.6193 19.5 16 19.5C17.3807 19.5 18.5 20.6193 18.5 22Z" fill="#433B6B"/>
          <path d="M19.0825 19.875C19.4967 20.5924 19.4448 21.3979 18.9665 21.674C18.4882 21.9501 17.7647 21.5924 17.3505 20.875C16.9363 20.1575 16.9882 19.3521 17.4665 19.0759C17.9448 18.7998 18.6683 19.1575 19.0825 19.875Z" fill="white"/>
        </g>
      </g>
      <rect x="433.0" y="398.0" width="740.0" height="24" rx="12" fill="var(--accent-2)" fill-opacity="0.08"/>
      <text x="1274.0" y="412.0" text-anchor="end" font-size="17" font-weight="800" fill="var(--accent-2)" opacity="0.72">02</text>
      <text id="ITEM_2_HEAD" x="446.0" y="388.0" text-anchor="start" font-weight="800" font-size="30" fill="var(--accent-2)" data-bg-id="ITEM_2_BG" fill-opacity="1.0" style="font-size: 31px; font-family: 'Segoe UI Variable Display', 'Aptos Display', 'Inter', 'Segoe UI', Helvetica, Arial, sans-serif; font-weight: 700; font-kerning: normal; font-feature-settings: &quot;kern&quot; 1, &quot;liga&quot; 1; letter-spacing:-0.4px;" data-final-font-size="31">
        <tspan x="446.0" dy="25.52px">Photo Capture</tspan>
      </text>
      <rect id="ITEM_2_HEAD_FRAME" x="446.0" y="388.0" width="670.0" height="34" fill="none"/>
      <text id="ITEM_2_BODY" x="446.0" y="430.0" text-anchor="start" font-size="23" fill="var(--primary-text)" data-bg-id="ITEM_2_BG" style="font-size: 23px; font-family: 'Segoe UI Variable Text', 'Aptos', 'Inter', 'Segoe UI', Helvetica, Arial, sans-serif; font-weight: 400; font-kerning: normal; font-feature-settings: &quot;kern&quot; 1, &quot;liga&quot; 1;" data-final-font-size="23">
        <tspan x="446.0" dy="31.91px">Witnesses photograph the craft and a smaller aircraft</tspan>
      </text>
      <rect id="ITEM_2_BODY_FRAME" x="446.0" y="430.0" width="780.0" height="94.0" fill="none"/>
    </g>
    <g filter="url(#svgbdb3088f-shadow)">
      <rect id="ITEM_3_BG" x="376.0" y="530.0" width="1030" height="176" rx="24" fill="var(--panel)" fill-opacity="0.97" stroke="var(--accent-3)" stroke-width="2.5"/>
      <rect x="376.0" y="530.0" width="1030" height="18" rx="9" fill="var(--accent-3)" fill-opacity="0.55"/>
      <circle id="ITEM_3_PAD" cx="458.0" cy="607.0" r="40" fill="var(--icon-pad-bg)" opacity="1" fill-opacity="0.9" stroke-width="2" stroke="var(--accent-3)" stroke-opacity="0.72" data-badge-layer="pad"/>
      <circle id="ITEM_3_PAD_INNER" cx="458.0" cy="607.0" r="31.20" fill="var(--accent-3)" fill-opacity="0.12" stroke="none" data-badge-layer="tint"/>
      <circle cx="458.0" cy="607.0" r="32" fill="none" stroke="var(--accent-3)" stroke-width="3" stroke-dasharray="6 4" display="none" data-suppressed-decoration="redundant-badge-ring"/>
      <g id="ITEM_3_ICON" transform="translate(428.0, 577.0)" data-icon-size="60" stroke-linecap="round" stroke-linejoin="round" data-badge-treatment="clean">
        <g transform="translate(-3.280000000000003,-7.4399999999999995) scale(2.08)">
          <path d="M4 7C4 5.89543 4.89543 5 6 5H29C30.1046 5 31 5.89543 31 7V29C31 30.1046 30.1046 31 29 31H4C2.34315 31 1 29.6569 1 28V10C1 8.34314 2.34315 7 4 7Z" fill="#B4ACBC"/>
          <path d="M28 10C28 8.89543 27.1046 8 26 8H4C2.89543 8 2 8.89543 2 10V28C2 29.1046 2.89543 30 4 30H29.5C28.6716 30 28 29.3284 28 28.5V10Z" fill="#F3EEF8"/>
          <path d="M4 11C4 10.4477 4.44772 10 5 10H25C25.5523 10 26 10.4477 26 11C26 11.5523 25.5523 12 25 12H5C4.44772 12 4 11.5523 4 11ZM4 14.5C4 14.2239 4.22386 14 4.5 14H25.5C25.7761 14 26 14.2239 26 14.5C26 14.7761 25.7761 15 25.5 15H4.5C4.22386 15 4 14.7761 4 14.5ZM19.5 17C19.2239 17 19 17.2239 19 17.5C19 17.7761 19.2239 18 19.5 18H25.5C25.7761 18 26 17.7761 26 17.5C26 17.2239 25.7761 17 25.5 17H19.5ZM19 20.5C19 20.2239 19.2239 20 19.5 20H25.5C25.7761 20 26 20.2239 26 20.5C26 20.7761 25.7761 21 25.5 21H19.5C19.2239 21 19 20.7761 19 20.5ZM19.5 23C19.2239 23 19 23.2239 19 23.5C19 23.7761 19.2239 24 19.5 24H25.5C25.7761 24 26 23.7761 26 23.5C26 23.2239 25.7761 23 25.5 23H19.5ZM19 26.5C19 26.2239 19.2239 26 19.5 26H25.5C25.7761 26 26 26.2239 26 26.5C26 26.7761 25.7761 27 25.5 27H19.5C19.2239 27 19 26.7761 19 26.5ZM6 17C4.89543 17 4 17.8954 4 19V25C4 26.1046 4.89543 27 6 27H15C16.1046 27 17 26.1046 17 25V19C17 17.8954 16.1046 17 15 17H6Z" fill="#998EA4"/>
        </g>
      </g>
      <rect x="531.0" y="558.0" width="740.0" height="24" rx="12" fill="var(--accent-3)" fill-opacity="0.08"/>
      <text x="1372.0" y="572.0" text-anchor="end" font-size="17" font-weight="800" fill="var(--accent-3)" opacity="0.72">03</text>
      <text id="ITEM_3_HEAD" x="544.0" y="548.0" text-anchor="start" font-weight="800" font-size="30" fill="var(--accent-3)" data-bg-id="ITEM_3_BG" fill-opacity="1.0" style="font-size: 31px; font-family: 'Segoe UI Variable Display', 'Aptos Display', 'Inter', 'Segoe UI', Helvetica, Arial, sans-serif; font-weight: 700; font-kerning: normal; font-feature-settings: &quot;kern&quot; 1, &quot;liga&quot; 1; letter-spacing:-0.4px;" data-final-font-size="31">
        <tspan x="544.0" dy="25.52px">Media Release</tspan>
      </text>
      <rect id="ITEM_3_HEAD_FRAME" x="544.0" y="548.0" width="670.0" height="34" fill="none"/>
      <text id="ITEM_3_BODY" x="544.0" y="590.0" text-anchor="start" font-size="23" fill="var(--primary-text)" data-bg-id="ITEM_3_BG" style="font-size: 23px; font-family: 'Segoe UI Variable Text', 'Aptos', 'Inter', 'Segoe UI', Helvetica, Arial, sans-serif; font-weight: 400; font-kerning: normal; font-feature-settings: &quot;kern&quot; 1, &quot;liga&quot; 1;" data-final-font-size="23">
        <tspan x="544.0" dy="31.91px">Images are passed to the Daily Record newspaper</tspan>
      </text>
      <rect id="ITEM_3_BODY_FRAME" x="544.0" y="590.0" width="780.0" height="94.0" fill="none"/>
    </g>
    <g filter="url(#svgbdb3088f-shadow)">
      <rect id="ITEM_4_BG" x="474.0" y="690.0" width="1030" height="176" rx="24" fill="var(--panel)" fill-opacity="0.97" stroke="var(--accent-4)" stroke-width="2.5"/>
      <rect x="474.0" y="690.0" width="1030" height="18" rx="9" fill="var(--accent-4)" fill-opacity="0.55"/>
      <circle id="ITEM_4_PAD" cx="556.0" cy="767.0" r="40" fill="var(--icon-pad-bg)" opacity="1" fill-opacity="0.9" stroke-width="2" stroke="var(--accent-1)" stroke-opacity="0.72" data-badge-layer="pad"/>
      <circle id="ITEM_4_PAD_INNER" cx="556.0" cy="767.0" r="31.20" fill="var(--accent-1)" fill-opacity="0.12" stroke="none" data-badge-layer="tint"/>
      <circle cx="556.0" cy="767.0" r="32" fill="none" stroke="var(--accent-4)" stroke-width="3" stroke-dasharray="6 4" display="none" data-suppressed-decoration="redundant-badge-ring"/>
      <g id="ITEM_4_ICON" transform="translate(526.0, 737.0)" data-icon-size="60" stroke-linecap="round" stroke-linejoin="round" data-badge-treatment="clean">
        <g transform="translate(-5.360000000000003,-3.280000000000001) scale(0.26)" vector-effect="non-scaling-stroke" stroke-width="2.43" stroke-linecap="round" stroke-linejoin="round" stroke-opacity="1.0">
          <line x1="24" y1="216" x2="248" y2="216" fill="none" stroke="#f1f5f9" vector-effect="non-scaling-stroke"/>
          <line x1="48" y1="40" x2="48" y2="216" fill="none" stroke="#f1f5f9" vector-effect="non-scaling-stroke"/>
          <line x1="176" y1="216" x2="176" y2="40" fill="none" stroke="#f1f5f9" vector-effect="non-scaling-stroke"/>
          <line x1="224" y1="216" x2="224" y2="88" fill="none" stroke="#f1f5f9" vector-effect="non-scaling-stroke"/>
          <line x1="80" y1="80" x2="96" y2="80" fill="none" stroke="#f1f5f9" vector-effect="non-scaling-stroke"/>
          <line x1="128" y1="80" x2="144" y2="80" fill="none" stroke="#f1f5f9" vector-effect="non-scaling-stroke"/>
          <line x1="80" y1="120" x2="96" y2="120" fill="none" stroke="#f1f5f9" vector-effect="non-scaling-stroke"/>
          <line x1="128" y1="120" x2="144" y2="120" fill="none" stroke="#f1f5f9" vector-effect="non-scaling-stroke"/>
          <polyline points="88 216 88 160 136 160 136 216" fill="none" stroke="#f1f5f9" vector-effect="non-scaling-stroke"/>
          <line x1="40" y1="40" x2="184" y2="40" fill="none" stroke="#f1f5f9" vector-effect="non-scaling-stroke"/>
          <line x1="176" y1="88" x2="232" y2="88" fill="none" stroke="#f1f5f9" vector-effect="non-scaling-stroke"/>
        </g>
      </g>
      <rect x="629.0" y="718.0" width="740.0" height="24" rx="12" fill="var(--accent-4)" fill-opacity="0.08"/>
      <text x="1470.0" y="732.0" text-anchor="end" font-size="17" font-weight="800" fill="var(--accent-4)" opacity="0.72">04</text>
      <text id="ITEM_4_HEAD" x="642.0" y="708.0" text-anchor="start" font-weight="800" font-size="30" fill="var(--accent-1)" data-bg-id="ITEM_4_BG" fill-opacity="1.0" style="font-size: 31px; font-family: 'Segoe UI Variable Display', 'Aptos Display', 'Inter', 'Segoe UI', Helvetica, Arial, sans-serif; font-weight: 700; font-kerning: normal; font-feature-settings: &quot;kern&quot; 1, &quot;liga&quot; 1; letter-spacing:-0.4px;" data-final-font-size="31">
        <tspan x="642.0" dy="25.52px">Official Review</tspan>
      </text>
      <rect id="ITEM_4_HEAD_FRAME" x="642.0" y="708.0" width="670.0" height="34" fill="none"/>
      <text id="ITEM_4_BODY" x="642.0" y="750.0" text-anchor="start" font-size="23" fill="var(--primary-text)" data-bg-id="ITEM_4_BG" style="font-size: 23px; font-family: 'Segoe UI Variable Text', 'Aptos', 'Inter', 'Segoe UI', Helvetica, Arial, sans-serif; font-weight: 400; font-kerning: normal; font-feature-settings: &quot;kern&quot; 1, &quot;liga&quot; 1;" data-final-font-size="23">
        <tspan x="642.0" dy="31.91px">Ministry of Defence receives and analyzes the evidence</tspan>
      </text>
      <rect id="ITEM_4_BODY_FRAME" x="642.0" y="750.0" width="780.0" height="94.0" fill="none"/>
    </g>
  </g>
  <text id="SOURCE_NOTE" x="134.0" y="1058.0" fill="var(--muted-text)" opacity="0.88" style="font-family: var(--font-family); font-size: 20px;">Source: Introduction</text>
</svg>
