<?xml version='1.0' encoding='utf-8'?>
<svg xmlns="http://www.w3.org/2000/svg" width="1920" height="1080" viewBox="0 0 1920 1080" data-theme="light" data-semantic-intent="taxonomy_list" data-relation-type="taxonomy" data-site-visual-identity="signal-cobalt">
  <style>
        @font-face {
            font-family: 'Inter';
            src: url('assets/fonts/Inter-Regular.ttf') format('truetype');
            font-weight: 400;
            font-style: normal;
            font-display: swap;
        }
        @font-face {
            font-family: 'Inter';
            src: url('assets/fonts/Inter-Bold.ttf') format('truetype');
            font-weight: 600;
            font-style: normal;
            font-display: swap;
        }
        @font-face {
            font-family: 'Inter';
            src: url('assets/fonts/Inter-Bold.ttf') format('truetype');
            font-weight: 800;
            font-style: normal;
            font-display: swap;
        }
        
:root {
    --background: #f8fafc;
    --panel: #ffffff;
    --primary-text: #0f172a;
    --muted-text: #64748b;
    --inverse-text: #ffffff;
    --border: #e2e8f0;
    --shadow-color: #000000;
    --icon-pad-bg: #1e293b;
    --art-glow: #0891b2;
    --art-glow-opacity: 0.10;
    --art-sheen: #ffffff;
    --art-sheen-opacity: 0.34;
    --art-shadow: #0f172a;
    --art-shadow-opacity: 0.14;
    --art-muted-line: #94a3b8;
    --art-panel-tint: #f1f5f9;
    --semantic-risk: #b91c1c;
    --semantic-warning: #c2410c;
    --semantic-uncertain: #a16207;
    --semantic-evidence: #1d4ed8;
    --semantic-claim: #6d28d9;
    --semantic-positive: #15803d;
    --semantic-outcome: #0e7490;
    --font-family: 'Inter', 'Segoe UI', 'Kalam', Roboto, Helvetica, Arial, sans-serif;
    --radius-xl: 16px;
    --font-family-headline: 'Segoe UI Variable Display', 'Aptos Display', 'Inter', 'Segoe UI', Helvetica, Arial, sans-serif;
    --font-family-body: 'Segoe UI Variable Text', 'Aptos', 'Inter', 'Segoe UI', Helvetica, Arial, sans-serif;
    --font-heading: var(--font-family-headline);
    --font-body: var(--font-family-body);
    --font-size-h1: 64px;
    --font-size-h2: 42px;
    --font-size-h3: 29px;
    --font-size-body: 21px;
    --font-size-caption: 17px;
    --secondary-text: var(--muted-text);
    --panel-border: var(--border);
    --font-weight-normal: 400;
    --font-weight-medium: 500;
    --font-weight-semibold: 600;
    --font-weight-bold: 700;
    --spacing-gutter-pct: 0.07;
    --spacing-top-pct: 0.15;
    --spacing-bottom-pct: 0.07;
    --spacing-title-y-pct: 0.055;
    --accent-1: #1d4ed8;
    --accent-2: #2563eb;
    --accent-3: #4f46e5;
    --accent-4: #6d28d9;
    --accent-5: #0369a1;
    --accent-6: #c2410c;
}
:root[data-theme="dark"] {
    --background: #0f172a;
    --panel: #1e293b;
    --primary-text: #f1f5f9;
    --muted-text: #94a3b8;
    --inverse-text: #0f172a;
    --border: #334155;
    --shadow-color: #000000;
    --icon-pad-bg: #1e293b;
    --art-glow: #7dd3fc;
    --art-glow-opacity: 0.18;
    --art-sheen: #ffffff;
    --art-sheen-opacity: 0.18;
    --art-shadow: #000000;
    --art-shadow-opacity: 0.28;
    --art-muted-line: #64748b;
    --art-panel-tint: #1e293b;
    --semantic-risk: #f87171;
    --semantic-warning: #fb923c;
    --semantic-uncertain: #fbbf24;
    --semantic-evidence: #60a5fa;
    --semantic-claim: #c084fc;
    --semantic-positive: #4ade80;
    --semantic-outcome: #22d3ee;
    --accent-1: #93c5fd;
    --accent-2: #60a5fa;
    --accent-3: #818cf8;
    --accent-4: #a78bfa;
    --accent-5: #38bdf8;
    --accent-6: #fb923c;
}
:root[data-theme="light"] {
    --background: #f8fafc;
    --panel: #ffffff;
    --primary-text: #0f172a;
    --muted-text: #64748b;
    --inverse-text: #ffffff;
    --border: #e2e8f0;
    --shadow-color: #000000;
    --icon-pad-bg: #1e293b;
    --art-glow: #0891b2;
    --art-glow-opacity: 0.10;
    --art-sheen: #ffffff;
    --art-sheen-opacity: 0.34;
    --art-shadow: #0f172a;
    --art-shadow-opacity: 0.14;
    --art-muted-line: #94a3b8;
    --art-panel-tint: #f1f5f9;
    --semantic-risk: #b91c1c;
    --semantic-warning: #c2410c;
    --semantic-uncertain: #a16207;
    --semantic-evidence: #1d4ed8;
    --semantic-claim: #6d28d9;
    --semantic-positive: #15803d;
    --semantic-outcome: #0e7490;
    --accent-1: #1d4ed8;
    --accent-2: #2563eb;
    --accent-3: #4f46e5;
    --accent-4: #6d28d9;
    --accent-5: #0369a1;
    --accent-6: #c2410c;
}</style>
  <rect x="0" y="0" width="1.92E+3" height="1.08E+3" fill="#252a34" stroke="none" id="programmatic_background"/>
  <line id="HEADER_DECOR" x1="960.0" x2="1080.0" y1="135.0" y2="135.0" stroke="var(--accent-1)" stroke-width="6" stroke-linecap="round"/>
  <defs>
    <pattern id="svg9a339866-napkin-hatch" patternUnits="userSpaceOnUse" width="12" height="12">
      <path d="M -3 12 L 12 -3 M 0 15 L 15 0" fill="none" stroke="var(--primary-text)" stroke-width="1" stroke-opacity="0.05"/>
    </pattern>
    <filter id="svg9a339866-shadow" x="-30%" y="-30%" width="160%" height="160%">
      <feDropShadow dx="0" dy="2" stdDeviation="3" flood-color="#000000" flood-opacity="0.08"/>
      <feDropShadow dx="0" dy="6" stdDeviation="10" flood-color="#000000" flood-opacity="0.12"/>
    </filter>
    <radialGradient id="svg9a339866-universal-edge-vignette" cx="50%" cy="50%" r="72%">
      <stop offset="0%" stop-color="var(--background)" stop-opacity="0"/>
      <stop offset="72%" stop-color="var(--background)" stop-opacity="0.12"/>
      <stop offset="100%" stop-color="var(--primary-text)" stop-opacity="0.08"/>
    </radialGradient>
    <linearGradient id="svg9a339866-universal-surface-sheen" x1="0%" y1="0%" x2="100%" y2="100%">
      <stop offset="0%" stop-color="var(--art-sheen)" stop-opacity="var(--art-sheen-opacity)"/>
      <stop offset="46%" stop-color="var(--art-sheen)" stop-opacity="0.035"/>
      <stop offset="100%" stop-color="var(--art-panel-tint)" stop-opacity="0.14"/>
    </linearGradient>
    <radialGradient id="svg9a339866-universal-icon-aura" cx="50%" cy="42%" r="64%">
      <stop offset="0%" stop-color="var(--art-glow)" stop-opacity="var(--art-glow-opacity)"/>
      <stop offset="100%" stop-color="var(--background)" stop-opacity="0"/>
    </radialGradient>
    <linearGradient id="svg9a339866-fact-card-sheen" x1="0%" y1="0%" x2="100%" y2="100%">
      <stop offset="0%" stop-color="var(--inverse-text)" stop-opacity="0.18"/>
      <stop offset="54%" stop-color="var(--inverse-text)" stop-opacity="0.04"/>
      <stop offset="100%" stop-color="var(--background)" stop-opacity="0.14"/>
    </linearGradient>
    <radialGradient id="svg9a339866-fact-icon-glow" cx="50%" cy="42%" r="62%">
      <stop offset="0%" stop-color="var(--inverse-text)" stop-opacity="0.22"/>
      <stop offset="100%" stop-color="var(--background)" stop-opacity="0"/>
    </radialGradient>
    <filter id="svg9a339866-text-glow" x="-20%" y="-20%" width="140%" height="140%">
      <feDropShadow dx="0" dy="0" stdDeviation="2" flood-color="#000000" flood-opacity="0.4"/>
    </filter>
    <marker id="svg9a339866-arrowhead" markerWidth="10" markerHeight="7" refX="9" refY="3.5" orient="auto" markerUnits="strokeWidth">
      <polygon points="0 0, 10 3.5, 0 7" fill="var(--muted-text)" opacity="0.6"/>
    </marker>
  </defs>
  <rect width="100%" height="100%" fill="var(--background)" id="CANVAS_BG"/>
  <rect width="100%" height="100%" fill="url(#svg9a339866-napkin-hatch)"/>
  <rect id="UNIVERSAL_EDGE_VIGNETTE" width="100%" height="100%" fill="url(#svg9a339866-universal-edge-vignette)" opacity="0.62"/>
  <line x1="960" y1="178" x2="960" y2="986" stroke="var(--muted-text)" stroke-width="5" stroke-opacity="0.10" stroke-linecap="round"/>
  <path d="M 360 178 C 620 152 1300 152 1560 178" fill="none" stroke="var(--primary-text)" stroke-width="2" stroke-opacity="0.12" stroke-linecap="round"/>
  <text id="TITLE" x="960.0" y="59" font-size="72" font-weight="800" fill="#0f172a" style="font-size: 69px; font-family: 'Segoe UI Variable Display', 'Aptos Display', 'Inter', 'Segoe UI', Helvetica, Arial, sans-serif; font-weight: 800; font-kerning: normal; font-feature-settings: &quot;kern&quot; 1, &quot;liga&quot; 1; letter-spacing:-1.2px;" text-anchor="middle" data-final-font-size="69">
    <tspan x="960.0" dy="70.47px">Criteria for Strong UFO Cases</tspan>
  </text>
  <rect id="TITLE_FRAME" x="134" y="59" width="1652" height="103" fill="none"/>
  <g transform="translate(960.0, 220.0)">
    <rect id="ITEM_1_BG" x="-600" y="-64" width="1200" height="184" rx="18" fill="var(--accent-1)" stroke="var(--accent-1)" filter="url(#svg9a339866-shadow)" stroke-width="3" fill-opacity="1.0"/>
    <g transform="translate(-480.0, 0.0)">
      <circle r="45" fill="var(--background)" opacity="0.3"/>
      <circle id="ITEM_1_PAD" cx="0" cy="0" r="42" fill="var(--icon-pad-bg)" stroke="var(--accent-1)" opacity="1" fill-opacity="0.9" stroke-width="2" stroke-opacity="0.72" data-badge-layer="pad"/>
      <circle id="ITEM_1_PAD_INNER" cx="0" cy="0" r="32.76" fill="var(--accent-1)" fill-opacity="0.12" stroke="none" data-badge-layer="tint"/>
      <circle cx="0" cy="0" r="34" fill="none" stroke="var(--accent-1)" stroke-width="3" stroke-dasharray="6 4" display="none" data-suppressed-decoration="redundant-badge-ring"/>
      <g id="ITEM_1_ICON" transform="translate(-34, -34)" data-icon-size="68" stroke-linecap="round" stroke-linejoin="round" data-badge-treatment="clean">
        <g transform="translate(-6.296296296296296,-6.296296296296294) scale(3.3580246913580245)" vector-effect="non-scaling-stroke" fill="#f1f5f9" fill-opacity="1.0" stroke="none">
          <path fill="#f1f5f9" d="M3.69 9.12a.88.88 0 0 0-.65-.28c-.41 0-.72.19-.92.58s-.15.76.17 1.11q1.77 1.59 2.25 2.25c.41.56.61 1.38.61 2.44c0 1.31.5 2.28 1.5 2.95c.56.44 1.17.77 1.85.99v-3.89c0-.94-.33-1.72-.96-2.35m8.92.05c-.62.62-.96 1.39-.96 2.3v3.93c.96-.34 1.76-.87 2.42-1.57c.65-.7.98-1.47.98-2.41c0-1.13.19-1.94.57-2.44c.09-.16.26-.36.53-.61c.23-.25.47-.49.71-.71c.23-.21.46-.43.68-.65l.33-.28a.9.9 0 0 0 .28-.66c0-.28-.09-.53-.28-.73s-.42-.3-.72-.3s-.5.09-.69.28M12 20c.69 0 1.36-.09 2-.28v-3.57c0-.59-.18-1.05-.59-1.49Q12.795 14 12 14c-.53 0-1 .2-1.38.61c-.4.39-.62.85-.62 1.45v3.66c.64.19 1.31.28 2 .28M9 8.5c0 .83-.67 1.5-1.5 1.5S6 9.33 6 8.5S6.67 7 7.5 7S9 7.67 9 8.5m9 0c0 .83-.67 1.5-1.5 1.5S15 9.33 15 8.5S15.67 7 16.5 7s1.5.67 1.5 1.5m-4.5-3c0 .83-.67 1.5-1.5 1.5s-1.5-.67-1.5-1.5S11.17 4 12 4s1.5.67 1.5 1.5m0 5.5c0 .83-.67 1.5-1.5 1.5s-1.5-.67-1.5-1.5s.67-1.5 1.5-1.5s1.5.67 1.5 1.5" vector-effect="non-scaling-stroke" stroke="none"/>
        </g>
      </g>
    </g>
    <g transform="translate(-330, -34)">
      <text id="ITEM_1_HEAD" text-anchor="start" font-weight="bold" font-size="29" fill="var(--inverse-text)" x="0.0" y="-10.0" data-bg-id="ITEM_1_BG" fill-opacity="1.0" style="font-size: 31px; font-family: 'Segoe UI Variable Display', 'Aptos Display', 'Inter', 'Segoe UI', Helvetica, Arial, sans-serif; font-weight: 700; font-kerning: normal; font-feature-settings: &quot;kern&quot; 1, &quot;liga&quot; 1; letter-spacing:-0.4px;" data-final-font-size="31">
        <tspan x="0.0" dy="33.30px">Witness Consistency</tspan>
      </text>
      <rect id="ITEM_1_HEAD_FRAME" x="0" y="-10" width="846" height="42" fill="none"/>
      <text id="ITEM_1_BODY" text-anchor="start" font-size="21" fill="var(--inverse-text)" x="0.0" y="30.0" data-bg-id="ITEM_1_BG" style="font-size: 23px; font-family: 'Segoe UI Variable Text', 'Aptos', 'Inter', 'Segoe UI', Helvetica, Arial, sans-serif; font-weight: 400; font-kerning: normal; font-feature-settings: &quot;kern&quot; 1, &quot;liga&quot; 1;" data-final-font-size="23">
        <tspan x="0.0" dy="40.47px">Multiple accounts matching in time and location</tspan>
      </text>
      <rect id="ITEM_1_BODY_FRAME" x="0" y="30" width="846" height="114" fill="none"/>
    </g>
  </g>
  <g transform="translate(960.0, 390.0)">
    <rect id="ITEM_2_BG" x="-600" y="-64" width="1200" height="184" rx="18" fill="var(--accent-2)" stroke="var(--accent-2)" filter="url(#svg9a339866-shadow)" stroke-width="3" fill-opacity="1.0"/>
    <g transform="translate(-480.0, 0.0)">
      <circle r="45" fill="var(--background)" opacity="0.3"/>
      <circle id="ITEM_2_PAD" cx="0" cy="0" r="42" fill="var(--icon-pad-bg)" stroke="var(--accent-2)" opacity="1" fill-opacity="0.9" stroke-width="2" stroke-opacity="0.72" data-badge-layer="pad"/>
      <circle id="ITEM_2_PAD_INNER" cx="0" cy="0" r="32.76" fill="var(--accent-2)" fill-opacity="0.12" stroke="none" data-badge-layer="tint"/>
      <circle cx="0" cy="0" r="34" fill="none" stroke="var(--accent-1)" stroke-width="3" stroke-dasharray="6 4" display="none" data-suppressed-decoration="redundant-badge-ring"/>
      <g id="ITEM_2_ICON" transform="translate(-34, -34)" data-icon-size="68" stroke-linecap="round" stroke-linejoin="round" data-badge-treatment="clean">
        <g transform="translate(-7.846153846153847,-7.846153846153847) scale(0.3269230769230769)" vector-effect="non-scaling-stroke" stroke-width="2.53" stroke-linecap="round" stroke-linejoin="round" stroke-opacity="1.0">
          <rect x="32" y="48" width="192" height="160" rx="8" fill="none" stroke="#f1f5f9" vector-effect="non-scaling-stroke"/>
          <line x1="128" y1="48" x2="128" y2="208" fill="none" stroke="#f1f5f9" vector-effect="non-scaling-stroke"/>
          <line x1="32" y1="80" x2="224" y2="80" fill="none" stroke="#f1f5f9" vector-effect="non-scaling-stroke"/>
          <line x1="32" y1="176" x2="224" y2="176" fill="none" stroke="#f1f5f9" vector-effect="non-scaling-stroke"/>
          <line x1="80" y1="48" x2="80" y2="80" fill="none" stroke="#f1f5f9" vector-effect="non-scaling-stroke"/>
          <line x1="176" y1="48" x2="176" y2="80" fill="none" stroke="#f1f5f9" vector-effect="non-scaling-stroke"/>
          <line x1="80" y1="176" x2="80" y2="208" fill="none" stroke="#f1f5f9" vector-effect="non-scaling-stroke"/>
          <line x1="176" y1="176" x2="176" y2="208" fill="none" stroke="#f1f5f9" vector-effect="non-scaling-stroke"/>
        </g>
      </g>
    </g>
    <g transform="translate(-330, -34)">
      <text id="ITEM_2_HEAD" text-anchor="start" font-weight="bold" font-size="29" fill="var(--inverse-text)" x="0.0" y="-10.0" data-bg-id="ITEM_2_BG" fill-opacity="1.0" style="font-size: 31px; font-family: 'Segoe UI Variable Display', 'Aptos Display', 'Inter', 'Segoe UI', Helvetica, Arial, sans-serif; font-weight: 700; font-kerning: normal; font-feature-settings: &quot;kern&quot; 1, &quot;liga&quot; 1; letter-spacing:-0.4px;" data-final-font-size="31">
        <tspan x="0.0" dy="33.30px">Visual Media</tspan>
      </text>
      <rect id="ITEM_2_HEAD_FRAME" x="0" y="-10" width="846" height="42" fill="none"/>
      <text id="ITEM_2_BODY" text-anchor="start" font-size="21" fill="var(--inverse-text)" x="0.0" y="30.0" data-bg-id="ITEM_2_BG" style="font-size: 23px; font-family: 'Segoe UI Variable Text', 'Aptos', 'Inter', 'Segoe UI', Helvetica, Arial, sans-serif; font-weight: 400; font-kerning: normal; font-feature-settings: &quot;kern&quot; 1, &quot;liga&quot; 1;" data-final-font-size="23">
        <tspan x="0.0" dy="40.47px">Photographs or video with reliable provenance</tspan>
      </text>
      <rect id="ITEM_2_BODY_FRAME" x="0" y="30" width="846" height="114" fill="none"/>
    </g>
  </g>
  <g transform="translate(960.0, 560.0)">
    <rect id="ITEM_3_BG" x="-600" y="-64" width="1200" height="184" rx="18" fill="var(--accent-3)" stroke="var(--accent-3)" filter="url(#svg9a339866-shadow)" stroke-width="3" fill-opacity="1.0"/>
    <g transform="translate(-480.0, 0.0)">
      <circle r="45" fill="var(--background)" opacity="0.3"/>
      <circle id="ITEM_3_PAD" cx="0" cy="0" r="42" fill="var(--icon-pad-bg)" stroke="var(--accent-3)" opacity="1" fill-opacity="0.9" stroke-width="2" stroke-opacity="0.72" data-badge-layer="pad"/>
      <circle id="ITEM_3_PAD_INNER" cx="0" cy="0" r="32.76" fill="var(--accent-3)" fill-opacity="0.12" stroke="none" data-badge-layer="tint"/>
      <circle cx="0" cy="0" r="34" fill="none" stroke="var(--accent-2)" stroke-width="3" stroke-dasharray="6 4" display="none" data-suppressed-decoration="redundant-badge-ring"/>
      <g id="ITEM_3_ICON" transform="translate(-34, -34)" data-icon-size="68" stroke-linecap="round" stroke-linejoin="round" data-badge-treatment="clean">
        <g transform="translate(-2.88135593220339,-2.88135593220339) scale(3.073446327683616)" vector-effect="non-scaling-stroke" stroke-width="2.53" stroke-linecap="round" stroke-linejoin="round" stroke-opacity="1.0">
          <path d="M19.07 4.93A10 10 0 0 0 6.99 3.34" vector-effect="non-scaling-stroke" fill="none" stroke="#f1f5f9"/>
          <path d="M4 6h.01" vector-effect="non-scaling-stroke" fill="none" stroke="#f1f5f9"/>
          <path d="M2.29 9.62A10 10 0 1 0 21.31 8.35" vector-effect="non-scaling-stroke" fill="none" stroke="#f1f5f9"/>
          <path d="M16.24 7.76A6 6 0 1 0 8.23 16.67" vector-effect="non-scaling-stroke" fill="none" stroke="#f1f5f9"/>
          <path d="M12 18h.01" vector-effect="non-scaling-stroke" fill="none" stroke="#f1f5f9"/>
          <path d="M17.99 11.66A6 6 0 0 1 15.77 16.67" vector-effect="non-scaling-stroke" fill="none" stroke="#f1f5f9"/>
          <circle cx="12" cy="12" r="2" vector-effect="non-scaling-stroke" fill="none" stroke="#f1f5f9"/>
          <path d="m13.41 10.59 5.66-5.66" vector-effect="non-scaling-stroke" fill="none" stroke="#f1f5f9"/>
        </g>
      </g>
    </g>
    <g transform="translate(-330, -34)">
      <text id="ITEM_3_HEAD" text-anchor="start" font-weight="bold" font-size="29" fill="var(--inverse-text)" x="0.0" y="-10.0" data-bg-id="ITEM_3_BG" fill-opacity="1.0" style="font-size: 31px; font-family: 'Segoe UI Variable Display', 'Aptos Display', 'Inter', 'Segoe UI', Helvetica, Arial, sans-serif; font-weight: 700; font-kerning: normal; font-feature-settings: &quot;kern&quot; 1, &quot;liga&quot; 1; letter-spacing:-0.4px;" data-final-font-size="31">
        <tspan x="0.0" dy="33.30px">Technical Data</tspan>
      </text>
      <rect id="ITEM_3_HEAD_FRAME" x="0" y="-10" width="846" height="42" fill="none"/>
      <text id="ITEM_3_BODY" text-anchor="start" font-size="21" fill="var(--inverse-text)" x="0.0" y="30.0" data-bg-id="ITEM_3_BG" style="font-size: 23px; font-family: 'Segoe UI Variable Text', 'Aptos', 'Inter', 'Segoe UI', Helvetica, Arial, sans-serif; font-weight: 400; font-kerning: normal; font-feature-settings: &quot;kern&quot; 1, &quot;liga&quot; 1;" data-final-font-size="23">
        <tspan x="0.0" dy="40.47px">Radar tracks or aviation flight records</tspan>
      </text>
      <rect id="ITEM_3_BODY_FRAME" x="0" y="30" width="846" height="114" fill="none"/>
    </g>
  </g>
  <g transform="translate(960.0, 730.0)">
    <rect id="ITEM_4_BG" x="-600" y="-64" width="1200" height="184" rx="18" fill="var(--accent-1)" stroke="var(--accent-4)" filter="url(#svg9a339866-shadow)" stroke-width="3" fill-opacity="1.0"/>
    <g transform="translate(-480.0, 0.0)">
      <circle r="45" fill="var(--background)" opacity="0.3"/>
      <circle id="ITEM_4_PAD" cx="0" cy="0" r="42" fill="var(--icon-pad-bg)" stroke="var(--accent-1)" opacity="1" fill-opacity="0.9" stroke-width="2" stroke-opacity="0.72" data-badge-layer="pad"/>
      <circle id="ITEM_4_PAD_INNER" cx="0" cy="0" r="32.76" fill="var(--accent-1)" fill-opacity="0.12" stroke="none" data-badge-layer="tint"/>
      <circle cx="0" cy="0" r="34" fill="none" stroke="var(--accent-3)" stroke-width="3" stroke-dasharray="6 4" display="none" data-suppressed-decoration="redundant-badge-ring"/>
      <g id="ITEM_4_ICON" transform="translate(-34, -34)" data-icon-size="68" stroke-linecap="round" stroke-linejoin="round" data-badge-treatment="clean">
        <g transform="translate(-2.88135593220339,-2.88135593220339) scale(3.073446327683616)" vector-effect="non-scaling-stroke" stroke-width="2.53" stroke-linecap="round" stroke-linejoin="round" stroke-opacity="1.0">
          <path d="M3.85 8.62a4 4 0 0 1 4.78-4.77 4 4 0 0 1 6.74 0 4 4 0 0 1 4.78 4.78 4 4 0 0 1 0 6.74 4 4 0 0 1-4.77 4.78 4 4 0 0 1-6.75 0 4 4 0 0 1-4.78-4.77 4 4 0 0 1 0-6.76Z" vector-effect="non-scaling-stroke" fill="none" stroke="#f1f5f9"/>
        </g>
      </g>
    </g>
    <g transform="translate(-330, -34)">
      <text id="ITEM_4_HEAD" text-anchor="start" font-weight="bold" font-size="29" fill="var(--inverse-text)" x="0.0" y="-10.0" data-bg-id="ITEM_4_BG" fill-opacity="1.0" style="font-size: 31px; font-family: 'Segoe UI Variable Display', 'Aptos Display', 'Inter', 'Segoe UI', Helvetica, Arial, sans-serif; font-weight: 700; font-kerning: normal; font-feature-settings: &quot;kern&quot; 1, &quot;liga&quot; 1; letter-spacing:-0.4px;" data-final-font-size="31">
        <tspan x="0.0" dy="33.30px">Official Involvement</tspan>
      </text>
      <rect id="ITEM_4_HEAD_FRAME" x="0" y="-10" width="846" height="42" fill="none"/>
      <text id="ITEM_4_BODY" text-anchor="start" font-size="21" fill="var(--inverse-text)" x="0.0" y="30.0" data-bg-id="ITEM_4_BG" style="font-size: 23px; font-family: 'Segoe UI Variable Text', 'Aptos', 'Inter', 'Segoe UI', Helvetica, Arial, sans-serif; font-weight: 400; font-kerning: normal; font-feature-settings: &quot;kern&quot; 1, &quot;liga&quot; 1;" data-final-font-size="23">
        <tspan x="0.0" dy="40.47px">Police or military involvement in the sighting</tspan>
      </text>
      <rect id="ITEM_4_BODY_FRAME" x="0" y="30" width="846" height="114" fill="none"/>
    </g>
  </g>
  <g transform="translate(960.0, 900.0)">
    <rect id="ITEM_5_BG" x="-600" y="-64" width="1200" height="184" rx="18" fill="var(--accent-2)" stroke="var(--accent-5)" filter="url(#svg9a339866-shadow)" stroke-width="3" fill-opacity="1.0"/>
    <g transform="translate(-480.0, 0.0)">
      <circle r="45" fill="var(--background)" opacity="0.3"/>
      <circle id="ITEM_5_PAD" cx="0" cy="0" r="42" fill="var(--icon-pad-bg)" stroke="var(--accent-2)" opacity="1" fill-opacity="0.9" stroke-width="2" stroke-opacity="0.72" data-badge-layer="pad"/>
      <circle id="ITEM_5_PAD_INNER" cx="0" cy="0" r="32.76" fill="var(--accent-2)" fill-opacity="0.12" stroke="none" data-badge-layer="tint"/>
      <circle cx="0" cy="0" r="34" fill="none" stroke="var(--accent-4)" stroke-width="3" stroke-dasharray="6 4" display="none" data-suppressed-decoration="redundant-badge-ring"/>
      <g id="ITEM_5_ICON" transform="translate(-34, -34)" data-icon-size="68" stroke-linecap="round" stroke-linejoin="round" data-badge-treatment="clean">
        <g transform="translate(-7.486238532110092,-4.990825688073395) scale(2.4954128440366974)">
          <path d="M12.3136 12.7574L20.4999 11L25.7487 13.4646L11.6065 27.6067C9.6539 29.5593 6.48807 29.5593 4.53545 27.6067C2.58283 25.6541 2.58283 22.4882 4.53545 20.5356L5.59212 19.479L6.64879 19.5664V18.4223L9.84605 15.225L10.8949 15.1953V14.1762L12.3136 12.7574Z" fill="#C3EF3C"/>
          <path d="M21.8596 2.50428C21.2738 1.91849 20.3241 1.91849 19.7383 2.50428C19.1525 3.09007 19.1525 4.03982 19.7383 4.6256L20.0918 4.97916L15.1174 9.95364L15.5 11L14.1038 10.9672L12.3136 12.7574L25.7486 13.4645L27.1629 12.0502L27.5165 12.4038C28.1023 12.9896 29.052 12.9896 29.6378 12.4038C30.2236 11.818 30.2236 10.8682 29.6378 10.2825L21.8596 2.50428Z" fill="#AEDDFF"/>
          <path d="M15.1421 9.92896L17.4402 12.2271C17.7331 12.5199 17.7331 12.9948 17.4402 13.2877C17.1473 13.5806 16.6724 13.5806 16.3795 13.2877L14.0814 10.9896L15.1421 9.92896Z" fill="#008463"/>
          <path d="M10.8994 14.1716L13.1975 16.4697C13.4904 16.7626 13.4904 17.2375 13.1975 17.5304C12.9046 17.8233 12.4297 17.8233 12.1368 17.5304L9.83875 15.2323L10.8994 14.1716Z" fill="#008463"/>
          <path d="M8.95495 20.7123L6.65685 18.4142L5.59619 19.4748L7.89429 21.7729C8.18718 22.0658 8.66206 22.0658 8.95495 21.7729C9.24784 21.48 9.24784 21.0052 8.95495 20.7123Z" fill="#008463"/>
        </g>
      </g>
    </g>
    <g transform="translate(-330, -34)">
      <text id="ITEM_5_HEAD" text-anchor="start" font-weight="bold" font-size="29" fill="var(--inverse-text)" x="0.0" y="-10.0" data-bg-id="ITEM_5_BG" fill-opacity="1.0" style="font-size: 31px; font-family: 'Segoe UI Variable Display', 'Aptos Display', 'Inter', 'Segoe UI', Helvetica, Arial, sans-serif; font-weight: 700; font-kerning: normal; font-feature-settings: &quot;kern&quot; 1, &quot;liga&quot; 1; letter-spacing:-0.4px;" data-final-font-size="31">
        <tspan x="0.0" dy="33.30px">Physical Evidence</tspan>
      </text>
      <rect id="ITEM_5_HEAD_FRAME" x="0" y="-10" width="846" height="42" fill="none"/>
      <text id="ITEM_5_BODY" text-anchor="start" font-size="21" fill="var(--inverse-text)" x="0.0" y="30.0" data-bg-id="ITEM_5_BG" style="font-size: 23px; font-family: 'Segoe UI Variable Text', 'Aptos', 'Inter', 'Segoe UI', Helvetica, Arial, sans-serif; font-weight: 400; font-kerning: normal; font-feature-settings: &quot;kern&quot; 1, &quot;liga&quot; 1;" data-final-font-size="23">
        <tspan x="0.0" dy="40.47px">Material that can be independently tested by labs</tspan>
      </text>
      <rect id="ITEM_5_BODY_FRAME" x="0" y="30" width="846" height="114" fill="none"/>
    </g>
  </g>
  <text id="SOURCE_NOTE" x="134.0" y="1058.0" fill="var(--muted-text)" opacity="0.88" style="font-family: var(--font-family); font-size: 20px;">Source: Introduction</text>
</svg>
